<svg width="60" height="61" viewBox="0 0 60 61" fill="none" xmlns="http://www.w3.org/2000/svg">
<path d="M6.47704 60C2.51485 55.9119 0.209591 50.4997 0.00722312 44.8102C-0.195144 39.1208 1.71976 33.5584 5.3815 29.1992C9.04323 24.84 14.1916 21.9938 19.8306 21.2111C25.4696 20.4284 31.1985 21.7649 35.909 24.962L40.842 29.485C41.9732 30.8729 42.9384 32.3881 43.718 34L42 56.965C41.2619 58.045 40.4332 59.0603 39.523 60H6.47704Z" fill="#2D9739"/>
<path d="M43.7179 34C42.9383 32.3882 41.9731 30.8729 40.8419 29.485L35.9089 24.961L35.8219 24.902C32.9155 22.964 29.5003 21.9298 26.0069 21.9298C22.5136 21.9298 19.0984 22.964 16.1919 24.902C13.3965 26.7768 11.0467 29.2424 9.30829 32.1246C7.56987 35.0068 6.48523 38.2355 6.13094 41.5827C5.77665 44.9299 6.16134 48.3141 7.25785 51.4964C8.35437 54.6787 10.136 57.5815 12.4769 60H39.5229C40.4331 59.0603 41.2618 58.045 41.9999 56.965L43.7179 34Z" fill="#44BC59"/>
<path d="M42.473 31.761C41.9759 30.97 41.4312 30.21 40.842 29.485L38.635 27.461C37.5727 28.1864 36.4207 28.771 35.208 29.2L30.836 30.69C30.5901 30.776 30.3773 30.9368 30.2273 31.1498C30.0774 31.3629 29.9979 31.6175 30 31.878V38.748C29.9955 38.9673 30.0502 39.1837 30.1581 39.3746C30.2661 39.5655 30.4235 39.7238 30.6137 39.8329C30.8039 39.942 31.02 39.9979 31.2393 39.9948C31.4586 39.9916 31.673 39.9295 31.86 39.815L36.253 37.069C38.5676 35.6036 40.6619 33.8164 42.473 31.761Z" fill="#2D9739"/>
<path d="M28 17H18C16.8954 17 16 17.8954 16 19C16 20.1046 16.8954 21 18 21H28C29.1046 21 30 20.1046 30 19C30 17.8954 29.1046 17 28 17Z" fill="#FFC239"/>
<path d="M23 53C29.6274 53 35 47.6274 35 41C35 34.3726 29.6274 29 23 29C16.3726 29 11 34.3726 11 41C11 47.6274 16.3726 53 23 53Z" fill="#ABE4A3"/>
<path d="M23 29C20.6737 28.9982 18.3976 29.6767 16.452 30.952C14.9433 33.2568 14.2741 36.0109 14.5571 38.751C14.8401 41.4912 16.0579 44.0504 18.0058 45.9983C19.9536 47.9462 22.5128 49.164 25.253 49.4469C27.9932 49.7299 30.7472 49.0608 33.052 47.552C34.2352 45.742 34.907 43.6456 34.9961 41.485C35.0851 39.3244 34.5883 37.1799 33.5581 35.2786C32.5279 33.3773 31.0028 31.7899 29.1441 30.6846C27.2855 29.5794 25.1625 28.9973 23 29Z" fill="#CDF8C8"/>
<path d="M18.0001 17L15.2201 12C14.5351 10.338 15.4691 8 17.0001 8H29.0001C30.5311 8 31.4651 10.338 30.7801 12L28.0001 17H18.0001Z" fill="#2D9739"/>
<path d="M60 59H0V61H60V59Z" fill="#FFC239"/>
<path d="M39 41H35V57H39V41Z" fill="#FFC239"/>
<path d="M46 34H42V57H46V34Z" fill="#FFC239"/>
<path d="M53 27H49V57H53V27Z" fill="#FFC239"/>
<path d="M34.6279 38.084C33.9523 35.389 32.3617 33.0122 30.1279 31.36C30.0494 31.5216 30.0068 31.6983 30.0029 31.878V38.748C29.9985 38.9672 30.0531 39.1837 30.1611 39.3746C30.269 39.5654 30.4264 39.7238 30.6166 39.8329C30.8069 39.942 31.023 39.9979 31.2422 39.9948C31.4615 39.9916 31.6759 39.9295 31.8629 39.815L34.6279 38.084Z" fill="#ABE4A3"/>
<path d="M60 21H56V57H60V21Z" fill="#FFC239"/>
<path d="M32 45H28V57H32V45Z" fill="#FFC239"/>
<path d="M18.0001 17C17.6582 17.002 17.3226 17.0927 17.0261 17.263C17.0897 17.7422 17.3247 18.1822 17.6876 18.5015C18.0505 18.8208 18.5167 18.9979 19.0001 19H29.0001C29.3421 18.998 29.6776 18.9073 29.9741 18.737C29.9106 18.2578 29.6756 17.8178 29.3127 17.4985C28.9498 17.1792 28.4835 17.0021 28.0001 17H18.0001Z" fill="#FFD55D"/>
<path d="M30.78 12C31.465 10.338 30.531 8 29 8H18.637C18.3966 7.99511 18.1586 8.04847 17.9433 8.15553C17.728 8.26259 17.5418 8.42017 17.4006 8.6148C17.2594 8.80944 17.1674 9.03536 17.1325 9.27327C17.0976 9.51117 17.1207 9.754 17.2 9.981L17.208 10L18.689 12.664C19.0831 13.3726 19.6596 13.963 20.3588 14.3737C21.0579 14.7845 21.8542 15.0007 22.665 15H29.112L30.78 12Z" fill="#44BC59"/>
<path d="M30 45V54C30 54.5304 30.2107 55.0391 30.5858 55.4142C30.9609 55.7893 31.4696 56 32 56V45H30Z" fill="#FFD55D"/>
<path d="M37 41V54C37 54.5304 37.2107 55.0391 37.5858 55.4142C37.9609 55.7893 38.4696 56 39 56V41H37Z" fill="#FFD55D"/>
<path d="M44 34V54C44 54.5304 44.2107 55.0391 44.5858 55.4142C44.9609 55.7893 45.4696 56 46 56V34H44Z" fill="#FFD55D"/>
<path d="M51 27V54C51 54.5304 51.2107 55.0391 51.5858 55.4142C51.9609 55.7893 52.4696 56 53 56V27H51Z" fill="#FFD55D"/>
<path d="M58 21V54C58 54.5304 58.2107 55.0391 58.5858 55.4142C58.9609 55.7893 59.4696 56 60 56V21H58Z" fill="#FFD55D"/>
<path d="M57.505 12.269C57.5539 12.4404 57.5561 12.6218 57.5114 12.7944C57.4666 12.9669 57.3766 13.1244 57.2505 13.2505C57.1244 13.3765 56.967 13.4666 56.7944 13.5113C56.6218 13.5561 56.4404 13.5539 56.269 13.505L51 12C48.48 20.377 43.566 28.522 36.253 33.092L31.86 35.838C31.673 35.9525 31.4586 36.0146 31.2393 36.0178C31.02 36.0209 30.8039 35.965 30.6137 35.8559C30.4235 35.7468 30.2661 35.5884 30.1581 35.3976C30.0502 35.2067 29.9955 34.9902 30 34.771V27.9C29.9984 27.6398 30.078 27.3856 30.2279 27.173C30.3778 26.9603 30.5904 26.7999 30.836 26.714L35.208 25.224C41.058 23.231 46.791 17.184 48 11L43.541 8.77098C43.3843 8.69264 43.2508 8.57448 43.1541 8.42834C43.0574 8.2822 43.0008 8.11321 42.99 7.9383C42.9791 7.7634 43.0144 7.58872 43.0924 7.43176C43.1703 7.2748 43.2881 7.14107 43.434 7.04398L52.859 0.759979C52.99 0.672693 53.1397 0.617553 53.296 0.599042C53.4523 0.580532 53.6107 0.599174 53.7585 0.653453C53.9062 0.707732 54.039 0.796114 54.1462 0.911411C54.2533 1.02671 54.3317 1.16567 54.375 1.31698L57.505 12.269Z" fill="#F3A606"/>
<path d="M31.86 33.246L36.253 30.5C43.046 26.255 47.769 18.924 50.427 11.188C50.5951 10.7084 50.9406 10.3115 51.3924 10.079C51.8443 9.8465 52.3681 9.79602 52.856 9.93798L56.269 10.913C56.4056 10.9525 56.5491 10.9618 56.6896 10.9404C56.8302 10.919 56.9644 10.8673 57.083 10.789L54.375 1.31698C54.3317 1.16567 54.2533 1.02671 54.1462 0.911411C54.039 0.796114 53.9062 0.707732 53.7585 0.653453C53.6107 0.599174 53.4523 0.580532 53.296 0.599042C53.1397 0.617553 52.99 0.672693 52.859 0.759979L43.434 7.04398C43.2881 7.14107 43.1703 7.2748 43.0924 7.43176C43.0144 7.58872 42.9791 7.7634 42.9899 7.9383C43.0008 8.11321 43.0574 8.2822 43.1541 8.42834C43.2508 8.57448 43.3842 8.69264 43.541 8.77098L48 11C46.791 17.184 41.058 23.231 35.208 25.225L30.836 26.715C30.5906 26.8008 30.3781 26.9611 30.2282 27.1736C30.0783 27.386 29.9985 27.64 30 27.9V32.18C29.9957 32.3992 30.0505 32.6155 30.1585 32.8062C30.2666 32.9969 30.4239 33.1551 30.6141 33.2641C30.8043 33.3731 31.0203 33.429 31.2395 33.4258C31.4587 33.4226 31.673 33.3605 31.86 33.246Z" fill="#FFC239"/>
</svg>
