<svg width="64" height="64" viewBox="0 0 64 64" fill="none" xmlns="http://www.w3.org/2000/svg">
<path d="M1 57H63V63H1V57Z" fill="#AEC4CC"/>
<path d="M1 60H63V63H1V60Z" fill="#7F99A5"/>
<path d="M18 15.754V14C18 13.7348 17.8946 13.4804 17.7071 13.2929C17.5196 13.1054 17.2652 13 17 13C16.7348 13 16.4804 13.1054 16.2929 13.2929C16.1054 13.4804 16 13.7348 16 14V17.256L16.5 17.106L18 15.754Z" fill="#F9BD46"/>
<path d="M27.515 8.143L28 8.434V5C28 4.73478 27.8946 4.48043 27.7071 4.29289C27.5196 4.10536 27.2652 4 27 4C26.7348 4 26.4804 4.10536 26.2929 4.29289C26.1054 4.48043 26 4.73478 26 5V8.555L26.331 8.255C26.4904 8.11205 26.6914 8.02402 26.9045 8.00386C27.1177 7.9837 27.3317 8.03247 27.515 8.143Z" fill="#F9BD46"/>
<path d="M38 13.656V11C38 10.7348 37.8946 10.4804 37.7071 10.2929C37.5196 10.1054 37.2652 10 37 10C36.7348 10 36.4804 10.1054 36.2929 10.2929C36.1054 10.4804 36 10.7348 36 11V13.234L37.136 13.915L38 13.656Z" fill="#F9BD46"/>
<path d="M48 10.264V8C48 7.73478 47.8946 7.48043 47.7071 7.29289C47.5196 7.10536 47.2652 7 47 7C46.7348 7 46.4804 7.10536 46.2929 7.29289C46.1054 7.48043 46 7.73478 46 8V11.256L46.6 11.076L48 10.264Z" fill="#F9BD46"/>
<path d="M54.1 6.72601L48 10.264L46.6 11.076L46 11.256L38 13.656L37.136 13.915L36 13.234L28 8.43401L27.515 8.14301C27.3314 8.03275 27.1173 7.98431 26.9042 8.00484C26.691 8.02536 26.4901 8.11375 26.331 8.25701L26 8.55701L18 15.757L16.5 17.109L16 17.259L9.41296 19.233C9.79297 19.7439 9.99876 20.3633 9.99996 21C9.99996 21.051 9.98696 21.1 9.98496 21.15L17.5 18.894L27.118 10.238L36.484 15.858C36.6031 15.9293 36.7357 15.975 36.8734 15.9922C37.0112 16.0094 37.151 15.9978 37.284 15.958L47.4 12.924L55.21 8.40001C54.6578 7.98687 54.2656 7.39541 54.1 6.72601Z" fill="#ED9B2F"/>
<path d="M9.41303 19.233C8.99617 18.6611 8.39057 18.2551 7.70328 18.0865C7.01598 17.918 6.29122 17.9978 5.6571 18.3119C5.02297 18.6261 4.52031 19.1543 4.23794 19.8031C3.95557 20.452 3.91168 21.1798 4.11402 21.858C4.31635 22.5361 4.7519 23.1208 5.34368 23.5089C5.93545 23.897 6.64536 24.0633 7.34793 23.9786C8.05051 23.8939 8.70051 23.5635 9.18308 23.0459C9.66564 22.5283 9.94969 21.8568 9.98503 21.15C9.98503 21.099 10 21.05 10 21C9.99882 20.3633 9.79304 19.7438 9.41303 19.233Z" fill="#F9BD46"/>
<path d="M57 2.99999C56.2044 2.99999 55.4413 3.31606 54.8787 3.87867C54.3161 4.44128 54 5.20434 54 5.99999C54.003 6.24521 54.0366 6.4891 54.1 6.72599C54.2362 7.27188 54.5231 7.76848 54.928 8.15909C55.3329 8.5497 55.8395 8.81857 56.3899 8.93501C56.9404 9.05146 57.5124 9.01077 58.0409 8.8176C58.5693 8.62443 59.0327 8.28657 59.3783 7.84258C59.7238 7.3986 59.9376 6.86639 59.9951 6.30673C60.0526 5.74707 59.9516 5.1825 59.7036 4.67751C59.4556 4.17251 59.0706 3.74743 58.5925 3.4508C58.1144 3.15418 57.5626 2.99796 57 2.99999Z" fill="#F9BD46"/>
<path d="M18 23C18 22.7348 17.8946 22.4804 17.7071 22.2929C17.5196 22.1054 17.2652 22 17 22C16.7348 22 16.4804 22.1054 16.2929 22.2929C16.1054 22.4804 16 22.7348 16 23V28H18V23Z" fill="#E55353"/>
<path d="M38 20C38 19.7348 37.8946 19.4804 37.7071 19.2929C37.5196 19.1054 37.2652 19 37 19C36.7348 19 36.4804 19.1054 36.2929 19.2929C36.1054 19.4804 36 19.7348 36 20V25H38V20Z" fill="#E55353"/>
<path d="M8 28C8 27.7348 7.89464 27.4804 7.70711 27.2929C7.51957 27.1054 7.26522 27 7 27C6.73478 27 6.48043 27.1054 6.29289 27.2929C6.10536 27.4804 6 27.7348 6 28V32H8V28Z" fill="#5DC169"/>
<path d="M28 15C28 14.7348 27.8946 14.4804 27.7071 14.2929C27.5196 14.1054 27.2652 14 27 14C26.7348 14 26.4804 14.1054 26.2929 14.2929C26.1054 14.4804 26 14.7348 26 15V19H28V15Z" fill="#5DC169"/>
<path d="M48 16C48 15.7348 47.8946 15.4804 47.7071 15.2929C47.5196 15.1054 47.2652 15 47 15C46.7348 15 46.4804 15.1054 46.2929 15.2929C46.1054 15.4804 46 15.7348 46 16V20H48V16Z" fill="#E55353"/>
<path d="M58 13C58 12.7348 57.8946 12.4804 57.7071 12.2929C57.5196 12.1054 57.2652 12 57 12C56.7348 12 56.4804 12.1054 56.2929 12.2929C56.1054 12.4804 56 12.7348 56 13V17H58V13Z" fill="#5DC169"/>
<path d="M16 28H14V37H20V28H18H16Z" fill="#E57676"/>
<path d="M36 25H34V37H40V25H38H36Z" fill="#E57676"/>
<path d="M6 32H4V41H10V32H8H6Z" fill="#77D888"/>
<path d="M26 19H24V31H30V19H28H26Z" fill="#77D888"/>
<path d="M46 20H44V32H50V20H48H46Z" fill="#E57676"/>
<path d="M58 17H56H54V26H60V17H58Z" fill="#77D888"/>
<path d="M4 41V49H6V53C6 53.2652 6.10536 53.5196 6.29289 53.7071C6.48043 53.8946 6.73478 54 7 54C7.26522 54 7.51957 53.8946 7.70711 53.7071C7.89464 53.5196 8 53.2652 8 53V49H10V41H4Z" fill="#5DC169"/>
<path d="M14 37V45H16V50C16 50.2652 16.1054 50.5196 16.2929 50.7071C16.4804 50.8946 16.7348 51 17 51C17.2652 51 17.5196 50.8946 17.7071 50.7071C17.8946 50.5196 18 50.2652 18 50V45H20V37H14Z" fill="#E55353"/>
<path d="M24 31V39H26V43C26 43.2652 26.1054 43.5196 26.2929 43.7071C26.4804 43.8946 26.7348 44 27 44C27.2652 44 27.5196 43.8946 27.7071 43.7071C27.8946 43.5196 28 43.2652 28 43V39H30V31H24Z" fill="#5DC169"/>
<path d="M34 37V45H36V50C36 50.2652 36.1054 50.5196 36.2929 50.7071C36.4804 50.8946 36.7348 51 37 51C37.2652 51 37.5196 50.8946 37.7071 50.7071C37.8946 50.5196 38 50.2652 38 50V45H40V37H34Z" fill="#E55353"/>
<path d="M44 32V40H46V45C46 45.2652 46.1054 45.5196 46.2929 45.7071C46.4804 45.8946 46.7348 46 47 46C47.2652 46 47.5196 45.8946 47.7071 45.7071C47.8946 45.5196 48 45.2652 48 45V40H50V32H44Z" fill="#E55353"/>
<path d="M54 26V34H56V41C56 41.2652 56.1054 41.5196 56.2929 41.7071C56.4804 41.8946 56.7348 42 57 42C57.2652 42 57.5196 41.8946 57.7071 41.7071C57.8946 41.5196 58 41.2652 58 41V34H60V26H54Z" fill="#5DC169"/>
</svg>
