<svg xmlns="http://www.w3.org/2000/svg" version="1.1" xmlns:xlink="http://www.w3.org/1999/xlink" width="512" height="512" x="0" y="0" viewBox="0 0 66 66" style="enable-background:new 0 0 512 512" xml:space="preserve" class=""><g><path d="M44.31 29.729h3.643l-5.85-5.851v3.644a2.21 2.21 0 0 0 2.207 2.207zM34.17 47.87V38.09h-2.33v9.782a1 1 0 0 1-1 1h-2.035l4.2 5.11 4.2-5.11H35.17a1 1 0 0 1-1-1z" fill="#000000" opacity="1" data-original="#000000" class=""></path><path d="M44.31 31.729a4.212 4.212 0 0 1-4.207-4.207V22.46H18.85c-1.219 0-2.21.991-2.21 2.21v37.12c0 1.218.991 2.21 2.21 2.21h28.31c1.218 0 2.21-.992 2.21-2.21V31.728zm-4.085 15.714a1 1 0 0 1-.131 1.062l-6.316 7.686a.999.999 0 0 1-1.545 0l-6.316-7.686a1 1 0 0 1 .772-1.634h3.152v-8.937c0-1.017.828-1.845 1.845-1.845h2.638c1.018 0 1.846.828 1.846 1.845v8.937h3.151a1 1 0 0 1 .904.572zm-19.71-20.975h15.008a1 1 0 1 1 0 2H20.515a1 1 0 1 1 0-2zm-1 6.19a1 1 0 0 1 1-1h8.109a1 1 0 1 1 0 2h-8.11a1 1 0 0 1-1-1zm25.78 24.369a3.923 3.923 0 0 1-3.92 3.918H24.636a3.923 3.923 0 0 1-3.92-3.918v-3.212a1 1 0 1 1 2 0v3.212a1.92 1.92 0 0 0 1.92 1.918h16.739a1.92 1.92 0 0 0 1.92-1.918v-3.212a1 1 0 1 1 2 0v3.212z" fill="#000000" opacity="1" data-original="#000000" class=""></path><path d="M53.869 18.28c-.895 0-1.775.117-2.618.345a.997.997 0 0 1-1.222-.684c-1.516-5.2-6.364-8.83-11.79-8.83-.45 0-.908.027-1.359.083a.997.997 0 0 1-1.01-.536 12.218 12.218 0 0 0-10.91-6.657c-6.776 0-12.29 5.513-12.29 12.29 0 .43.029.86.066 1.28a1 1 0 0 1-.893 1.085A10.94 10.94 0 0 0 2 27.57c0 6.054 4.926 10.98 10.98 10.98h1.66V24.67a4.215 4.215 0 0 1 4.209-4.21H41.1c.02 0 .037.01.057.012a.983.983 0 0 1 .272.054c.027.01.054.017.08.029.11.049.213.11.3.198l9.269 9.269c.088.088.15.192.198.301.011.024.018.049.027.074a.983.983 0 0 1 .056.281c0 .018.01.034.01.053v7.819h2.5c5.586 0 10.13-4.544 10.13-10.13 0-5.59-4.544-10.14-10.13-10.14z" fill="#000000" opacity="1" data-original="#000000" class=""></path></g></svg>