<svg id="svg14078" height="512" viewBox="0 0 16.933333 16.933334" width="512" xmlns="http://www.w3.org/2000/svg" xmlns:svg="http://www.w3.org/2000/svg"><g id="layer1" transform="translate(0 -280.067)"><path id="path4512" d="m2.1151168 283.76925c-.581739 0-1.056264.47711-1.056264 1.05885v9.2599h14.8161492v-9.2599c0-.58174-.476591-1.05885-1.058333-1.05885z" fill="#dfedfe" font-variant-ligatures="normal" font-variant-position="normal" font-variant-caps="normal" font-variant-numeric="normal" font-variant-alternates="normal" font-feature-settings="normal" text-indent="0" text-align="start" text-decoration-line="none" text-decoration-style="solid" text-decoration-color="#000000" text-transform="none" text-orientation="mixed" white-space="normal" shape-padding="0" isolation="auto" mix-blend-mode="normal" solid-color="#000000" solid-opacity="1" vector-effect="none"/><path id="path4514" d="m13.758335 283.76925c.581742 0 1.058334.47711 1.058334 1.05885v9.2599h1.058333v-9.2599c0-.58174-.476591-1.05885-1.058333-1.05885z" fill="#cde3fd" font-variant-ligatures="normal" font-variant-position="normal" font-variant-caps="normal" font-variant-numeric="normal" font-variant-alternates="normal" font-feature-settings="normal" text-indent="0" text-align="start" text-decoration-line="none" text-decoration-style="solid" text-decoration-color="#000000" text-transform="none" text-orientation="mixed" white-space="normal" shape-padding="0" isolation="auto" mix-blend-mode="normal" solid-color="#000000" solid-opacity="1" vector-effect="none"/><path id="path4516" d="m2.3807348 284.8281a.26460982.26460982 0 0 0 -.265618.26355v7.9375a.26460982.26460982 0 0 0 .265618.26562h12.1697992a.26460982.26460982 0 0 0 .266135-.26562v-7.9375a.26460982.26460982 0 0 0 -.266135-.26355z" fill="#90baf6" font-variant-ligatures="normal" font-variant-position="normal" font-variant-caps="normal" font-variant-numeric="normal" font-variant-alternates="normal" font-feature-settings="normal" text-indent="0" text-align="start" text-decoration-line="none" text-decoration-style="solid" text-decoration-color="#000000" text-transform="none" text-orientation="mixed" white-space="normal" shape-padding="0" isolation="auto" mix-blend-mode="normal" solid-color="#000000" solid-opacity="1" vector-effect="none"/><path id="path4518" d="m.79271886 293.82445a.26460982.26460982 0 0 0 -.26355101.26355v1.05834c0 .72832.59408395 1.32446 1.32239995 1.32446h13.2286512c.728317 0 1.32395-.59614 1.32395-1.32446v-1.05834a.26460982.26460982 0 0 0 -.265615-.26355z" fill="#337fef" font-variant-ligatures="normal" font-variant-position="normal" font-variant-caps="normal" font-variant-numeric="normal" font-variant-alternates="normal" font-feature-settings="normal" text-indent="0" text-align="start" text-decoration-line="none" text-decoration-style="solid" text-decoration-color="#000000" text-transform="none" text-orientation="mixed" white-space="normal" shape-padding="0" isolation="auto" mix-blend-mode="normal" solid-color="#000000" solid-opacity="1" vector-effect="none"/><path id="path4520" d="m5.5550829 293.82393v.53035c0 .43516.3597589.79297.7949218.79297h4.2322913c.435163 0 .794924-.35781.794924-.79297v-.53035z" fill="#176ded" font-variant-ligatures="normal" font-variant-position="normal" font-variant-caps="normal" font-variant-numeric="normal" font-variant-alternates="normal" font-feature-settings="normal" text-indent="0" text-align="start" text-decoration-line="none" text-decoration-style="solid" text-decoration-color="#000000" text-transform="none" text-orientation="mixed" white-space="normal" shape-padding="0" isolation="auto" mix-blend-mode="normal" solid-color="#000000" solid-opacity="1" vector-effect="none"/><path id="path4522" d="m15.080219 293.82445c.14612-.00053.265087.11743.265616.26355v.52917c0 .72832-.595632 1.32447-1.323948 1.32447h-12.1703192c-.728316 0-1.32239995-.59615-1.32239995-1.32447v.52917c0 .72832.59408395 1.32446 1.32239995 1.32446h13.2286512c.728317 0 1.32395-.59614 1.32395-1.32446v-1.05834a.26460982.26460982 0 0 0 -.265615-.26355z" fill="#176ded" font-variant-ligatures="normal" font-variant-position="normal" font-variant-caps="normal" font-variant-numeric="normal" font-variant-alternates="normal" font-feature-settings="normal" text-indent="0" text-align="start" text-decoration-line="none" text-decoration-style="solid" text-decoration-color="#000000" text-transform="none" text-orientation="mixed" white-space="normal" shape-padding="0" isolation="auto" mix-blend-mode="normal" solid-color="#000000" solid-opacity="1" vector-effect="none"/><path id="rect4943-0" d="m2.6458328 283.77081h.7937499v1.05833h-.7937499z" fill="#cde3fd"/><path id="path4600-2" d="m3.9697818 280.59583c-.435157 0-.7952999.35756-.7952999.79272v11.90625h10.5843661v-10.31823c-.000151-.0705-.02842-.13802-.07855-.18759l-2.117185-2.11718c-.04948-.0487-.116109-.076-.185518-.076z" fill="#dfedfe" font-variant-ligatures="normal" font-variant-position="normal" font-variant-caps="normal" font-variant-numeric="normal" font-variant-alternates="normal" font-feature-settings="normal" text-indent="0" text-align="start" text-decoration-line="none" text-decoration-style="solid" text-decoration-color="#000000" text-transform="none" text-orientation="mixed" white-space="normal" shape-padding="0" isolation="auto" mix-blend-mode="normal" solid-color="#000000" solid-opacity="1" vector-effect="none"/><path id="path4604-0" d="m12.700515 281.8092v10.69082c.000529.14713-.119004.26641-.266134.26561h-8.9942842c-.1469279.00053-.2661438-.11869-.2656149-.26561v.79478h10.5843661v-10.31823c-.000151-.0705-.02842-.13802-.07855-.18759z" fill="#cde3fd" font-variant-ligatures="normal" font-variant-position="normal" font-variant-caps="normal" font-variant-numeric="normal" font-variant-alternates="normal" font-feature-settings="normal" text-indent="0" text-align="start" text-decoration-line="none" text-decoration-style="solid" text-decoration-color="#000000" text-transform="none" text-orientation="mixed" white-space="normal" shape-padding="0" isolation="auto" mix-blend-mode="normal" solid-color="#000000" solid-opacity="1" vector-effect="none"/><path id="path4616-0" d="m11.111981 280.59583v1.85157c0 .43516.36014.79272.795302.79272h1.851565v-.26355c-.000151-.0705-.02842-.13802-.07855-.18759l-2.117185-2.11718c-.04948-.0487-.116109-.076-.185518-.076z" fill="#bad8fc" font-variant-ligatures="normal" font-variant-position="normal" font-variant-caps="normal" font-variant-numeric="normal" font-variant-alternates="normal" font-feature-settings="normal" text-indent="0" text-align="start" text-decoration-line="none" text-decoration-style="solid" text-decoration-color="#000000" text-transform="none" text-orientation="mixed" white-space="normal" shape-padding="0" isolation="auto" mix-blend-mode="normal" solid-color="#000000" solid-opacity="1" vector-effect="none"/><path id="path5129" d="m8.4631508 282.71417a.26460982.26460982 0 0 0 -.183593.0781l-1.8515629 1.84961a.26460982.26460982 0 0 0 .1874999.45118h1.056641v3.17578a.26460982.26460982 0 0 0 .265625.26367h1.058594a.26460982.26460982 0 0 0 .263671-.26367v-3.17578h1.0585942a.26460982.26460982 0 0 0 .187499-.45118l-1.8515612-1.84961a.26460982.26460982 0 0 0 -.191407-.0781z" fill="#ef4f33" font-variant-ligatures="normal" font-variant-position="normal" font-variant-caps="normal" font-variant-numeric="normal" font-variant-alternates="normal" font-feature-settings="normal" text-indent="0" text-align="start" text-decoration-line="none" text-decoration-style="solid" text-decoration-color="#000000" text-transform="none" text-orientation="mixed" white-space="normal" shape-padding="0" isolation="auto" mix-blend-mode="normal" solid-color="#000000" solid-opacity="1" vector-effect="none"/><path id="path5140" d="m5.5567667 289.59113a.26460982.26460982 0 0 0 -.2656152.26562v1.05885a.26460982.26460982 0 0 0 .2656152.26355h5.8203183a.26460982.26460982 0 0 0 .263549-.26355v-1.05885a.26460982.26460982 0 0 0 -.263549-.26562z" fill="#ef4f33" font-variant-ligatures="normal" font-variant-position="normal" font-variant-caps="normal" font-variant-numeric="normal" font-variant-alternates="normal" font-feature-settings="normal" text-indent="0" text-align="start" text-decoration-line="none" text-decoration-style="solid" text-decoration-color="#000000" text-transform="none" text-orientation="mixed" white-space="normal" shape-padding="0" isolation="auto" mix-blend-mode="normal" solid-color="#000000" solid-opacity="1" vector-effect="none"/><g fill="#ed3717"><path id="path5222" d="m10.318751 285.09321c.235296-.00009.353446-.28423.187584-.45113l-1.8515647-1.85002c-.05066-.051-.1198695-.0791-.1917197-.078-.068985.001-.1348132.0291-.1834515.078l-.076999.077 1.6970561 1.6955h-.903822c-.1529345 0-.2645833.13535-.2645833.26459v.26406h-.0005292v2.64635c-.0005292.14541-.1181418.26304-.2635515.26355h-.5291667c-.1461691.00053-.2656153-.11738-.2661338-.26355v.52917c.0005291.14632.1198139.26439.2661338.26355h1.0583333c.1453145-.00053.2629694-.11823.2635515-.26355l.0002566-3.17448c.3533272.00026.7058237-.001 1.0585921-.001z" font-variant-ligatures="normal" font-variant-position="normal" font-variant-caps="normal" font-variant-numeric="normal" font-variant-alternates="normal" font-feature-settings="normal" text-indent="0" text-align="start" text-decoration-line="none" text-decoration-style="solid" text-decoration-color="#000000" text-transform="none" text-orientation="mixed" white-space="normal" shape-padding="0" isolation="auto" mix-blend-mode="normal" solid-color="#000000" solid-opacity="1" vector-effect="none"/><path id="path5238" d="m10.847917 289.59113c.146119.00053.264078.1195.263549.26562v.52968c-.000582.14531-.118237.26302-.263549.26355h-5.2911503c-.1461188.00053-.2650861-.11743-.2656152-.26355v.52917a.26460982.26460982 0 0 0 .2656152.26355h5.8203183a.26460982.26460982 0 0 0 .263549-.26355v-1.05885a.26460982.26460982 0 0 0 -.263549-.26562z" font-variant-ligatures="normal" font-variant-position="normal" font-variant-caps="normal" font-variant-numeric="normal" font-variant-alternates="normal" font-feature-settings="normal" text-indent="0" text-align="start" text-decoration-line="none" text-decoration-style="solid" text-decoration-color="#000000" text-transform="none" text-orientation="mixed" white-space="normal" shape-padding="0" isolation="auto" mix-blend-mode="normal" solid-color="#000000" solid-opacity="1" vector-effect="none"/></g></g></svg>