<svg id="Layer_1" enable-background="new 0 0 512 512" height="512" viewBox="0 0 512 512" width="512" xmlns="http://www.w3.org/2000/svg"><g><g><ellipse cx="189.235" cy="201.058" fill="#ff9ed3" rx="189.235" ry="189.227"/><path d="m189.235 11.831c-6.963 0-13.835.388-20.604 1.12 94.818 10.268 168.631 90.562 168.631 188.106s-73.813 177.838-168.631 188.106c6.768.733 13.64 1.12 20.604 1.12 104.511 0 189.235-84.72 189.235-189.227s-84.724-189.225-189.235-189.225z" fill="#ff8aca"/><g><path d="m189.235 11.831c-52.256 0-99.564 21.18-133.809 55.423l133.809 133.804z" fill="#b5e6a8"/><path d="m189.235 201.058-133.809-133.804c-34.245 34.243-55.426 81.55-55.426 133.804s21.182 99.559 55.427 133.802z" fill="#ffe563"/></g></g><g><g><path d="m491.423 500.169h-295.284c-11.364 0-20.577-9.213-20.577-20.577v-118.313c0-11.364 9.213-20.577 20.577-20.577h295.285c11.364 0 20.577 9.213 20.577 20.577v118.313c-.001 11.365-9.214 20.577-20.578 20.577z" fill="#ff5781"/><path d="m491.423 340.702h-41.207c11.364 0 20.577 9.213 20.577 20.577v118.313c0 11.364-9.213 20.577-20.577 20.577h41.207c11.364 0 20.577-9.213 20.577-20.577v-118.313c0-11.364-9.213-20.577-20.577-20.577z" fill="#ff4170"/><g fill="#fff"><path d="m217.297 384.037v73.589"/><g><path d="m331.043 390.107c4.268 0 7.726-3.459 7.726-7.726s-3.459-7.726-7.726-7.726h-32.219c-4.268 0-7.726 3.459-7.726 7.726v76.462c0 4.267 3.459 7.726 7.726 7.726h32.219c4.268 0 7.726-3.459 7.726-7.726s-3.459-7.726-7.726-7.726h-24.493v-22.778h22.118c4.268 0 7.726-3.459 7.726-7.726s-3.459-7.726-7.726-7.726h-22.118v-22.778h24.493z"/><path d="m238.507 376.233h-21.21c-2.052 0-4.019.816-5.468 2.268-1.45 1.452-2.262 3.421-2.258 5.473 0 0 .054 28.806.054 37.345 0 10.408.098 37.552.098 37.552.008 2.049.828 4.012 2.283 5.456 1.448 1.437 3.404 2.243 5.443 2.243h.029c.64-.003 15.753-.061 21.784-.166 21.562-.377 37.212-19.303 37.212-45.002 0-27.018-15.258-45.169-37.967-45.169zm.485 74.719c-3.155.055-9.023.098-13.844.126-.029-8.825-.071-22.916-.071-29.76 0-5.707-.024-20.461-.04-29.633h13.469c16.6 0 22.515 15.35 22.515 29.715 0 14.048-6.894 29.288-22.029 29.552z"/><path d="m404.577 414.732c3.211-4.264 5.118-9.563 5.118-15.299 0-14.051-11.432-25.482-25.483-25.482h-22.415c-4.268 0-7.726 3.459-7.726 7.726v35.533.058 41.575c0 2.055.819 4.026 2.275 5.475 1.449 1.442 3.409 2.251 5.452 2.251h.034c.002 0 20.615-.092 26.296-.092 15.714 0 28.498-12.784 28.498-28.497-.001-9.589-4.767-18.081-12.049-23.248zm-20.365-25.329c5.53 0 10.03 4.499 10.03 10.03s-4.5 10.03-10.03 10.03c-1.637 0-4.714.009-8.073.021h-6.616v-20.08h14.689zm3.915 61.622c-3.397 0-12.117.033-18.604.059v-26.123c2.124-.009 4.447-.017 6.65-.025h11.954c7.193 0 13.045 5.852 13.045 13.045 0 7.192-5.852 13.044-13.045 13.044z"/><path d="m470.265 374.302h-42.617c-4.268 0-7.726 3.459-7.726 7.726s3.459 7.726 7.726 7.726h13.496v69.44c0 4.267 3.459 7.726 7.726 7.726 4.268 0 7.726-3.459 7.726-7.726v-69.44h13.668c4.268 0 7.726-3.459 7.726-7.726.001-4.266-3.458-7.726-7.725-7.726z"/></g></g></g><g><path d="m385.531 303.739h83.5v36.963h-83.5z" fill="#ffe563" transform="matrix(-1 0 0 -1 854.562 644.441)"/><path d="m385.531 266.776h83.5v36.963h-83.5z" fill="#ffb700" transform="matrix(-1 0 0 -1 854.562 570.515)"/><path d="m385.531 229.813h83.5v36.963h-83.5z" fill="#ffe563" transform="matrix(-1 0 0 -1 854.562 496.589)"/><path d="m302.031 303.739h83.5v36.963h-83.5z" fill="#ffb700" transform="matrix(-1 0 0 -1 687.562 644.441)"/><path d="m302.031 266.776h83.5v36.963h-83.5z" fill="#ffe563" transform="matrix(-1 0 0 -1 687.562 570.515)"/><path d="m302.031 229.813h83.5v36.963h-83.5z" fill="#ffb700" transform="matrix(-1 0 0 -1 687.562 496.589)"/><path d="m302.031 192.85h83.5v36.963h-83.5z" fill="#ffe563" transform="matrix(-1 0 0 -1 687.562 422.663)"/><path d="m302.031 155.887h83.5v36.963h-83.5z" fill="#ffb700" transform="matrix(-1 0 0 -1 687.562 348.737)"/><path d="m218.531 303.739h83.5v36.963h-83.5z" fill="#ffe563" transform="matrix(-1 0 0 -1 520.562 644.441)"/><path d="m218.531 266.776h83.5v36.963h-83.5z" fill="#ffb700" transform="matrix(-1 0 0 -1 520.562 570.515)"/></g></g></g></svg>