<svg width="64" height="64" viewBox="0 0 64 64" fill="none" xmlns="http://www.w3.org/2000/svg">
<path d="M60 55C60 57.2 58.2 59 56 59H10C7.8 59 6 57.2 6 55V7C6 4.8 7.8 3 10 3H56C58.2 3 60 4.8 60 7V55Z" fill="#80DEEA"/>
<path d="M14 52.5C13.173 52.5 12.5 51.827 12.5 51V11C12.5 10.173 13.173 9.5 14 9.5H52C52.827 9.5 53.5 10.173 53.5 11V51C53.5 51.827 52.827 52.5 52 52.5H14Z" fill="#4DD0E1"/>
<path d="M52 10C52.552 10 53 10.448 53 11V51C53 51.552 52.552 52 52 52H14C13.448 52 13 51.552 13 51V11C13 10.448 13.448 10 14 10H52ZM52 9H14C12.9 9 12 9.9 12 11V51C12 52.1 12.9 53 14 53H52C53.1 53 54 52.1 54 51V11C54 9.9 53.1 9 52 9Z" fill="#37474F"/>
<path d="M14 52.5C13.173 52.5 12.5 51.827 12.5 51V11C12.5 10.173 13.173 9.5 14 9.5H52C52.827 9.5 53.5 10.173 53.5 11V51C53.5 51.827 52.827 52.5 52 52.5H14Z" fill="#80DEEA"/>
<path d="M52 11V51H14V11H52ZM52 10H14C13.448 10 13 10.448 13 11V51C13 51.552 13.448 52 14 52H52C52.552 52 53 51.552 53 51V11C53 10.448 52.552 10 52 10Z" fill="#26C6DA"/>
<path d="M33 45C40.732 45 47 38.732 47 31C47 23.268 40.732 17 33 17C25.268 17 19 23.268 19 31C19 38.732 25.268 45 33 45Z" fill="#26C6DA"/>
<path d="M33 44C40.1797 44 46 38.1797 46 31C46 23.8203 40.1797 18 33 18C25.8203 18 20 23.8203 20 31C20 38.1797 25.8203 44 33 44Z" fill="#455A64"/>
<path d="M33 42C39.0751 42 44 37.0751 44 31C44 24.9249 39.0751 20 33 20C26.9249 20 22 24.9249 22 31C22 37.0751 26.9249 42 33 42Z" fill="#D5D5D5"/>
<path d="M33 42.001C39 42.001 43.999 37 43.999 31H33V42.001Z" fill="#BDBDBD"/>
<path d="M33 20C26.927 20 22 24.927 22 31H33V20Z" fill="#E0E0E0"/>
<path d="M36.9189 25.1956L36.0538 24.6961L37.5538 22.0981L38.4189 22.5976L36.9189 25.1956Z" fill="#37474F"/>
<path d="M28.4124 39.8979L27.5454 39.3989L29.0424 36.7979L29.9094 37.2969L28.4124 39.8979Z" fill="#37474F"/>
<path d="M39.3304 27.9345L38.8309 27.0694L41.4289 25.5694L41.9284 26.4345L39.3304 27.9345Z" fill="#37474F"/>
<path d="M24.5786 36.4469L24.0776 35.5819L26.6726 34.0789L27.1736 34.9439L24.5786 36.4469Z" fill="#37474F"/>
<path d="M40 30.5H43V31.5H40V30.5Z" fill="#37474F"/>
<path d="M23 30.5H26V31.5H23V30.5Z" fill="#37474F"/>
<path d="M38.8054 34.914L39.3049 34.0489L41.9021 35.5484L41.4026 36.4135L38.8054 34.914Z" fill="#37474F"/>
<path d="M24.09 26.4366L24.59 25.5706L27.188 27.0706L26.688 27.9366L24.09 26.4366Z" fill="#37474F"/>
<path d="M36.0605 37.3325L36.9257 36.833L38.4257 39.431L37.5605 39.9305L36.0605 37.3325Z" fill="#37474F"/>
<path d="M27.564 22.6044L28.4291 22.1049L29.9291 24.7029L29.064 25.2024L27.564 22.6044Z" fill="#37474F"/>
<path d="M32.5 38H33.5V41H32.5V38Z" fill="#37474F"/>
<path d="M32.5 21H33.5V24H32.5V21Z" fill="#37474F"/>
<path d="M33 37C36.3137 37 39 34.3137 39 31C39 27.6863 36.3137 25 33 25C29.6863 25 27 27.6863 27 31C27 34.3137 29.6863 37 33 37Z" fill="#E0E0E0"/>
<path d="M33 35C35.2091 35 37 33.2091 37 31C37 28.7909 35.2091 27 33 27C30.7909 27 29 28.7909 29 31C29 33.2091 30.7909 35 33 35Z" fill="white"/>
<path d="M27 31C27 27.691 29.691 25 33 25V27C30.795 27 29 28.795 29 31H27Z" fill="#EEEEEE"/>
<path d="M33 37V35C35.206 35 37 33.206 37 31H39C39 34.309 36.309 37 33 37Z" fill="#D5D5D5"/>
<path d="M48 59H56V61H48V59Z" fill="#008D9F"/>
<path d="M10 59H18V61H10V59Z" fill="#008D9F"/>
<path d="M33 20L32 18H34L33 20Z" fill="white"/>
<path d="M56 3H10C7.8 3 6 4.8 6 7V55C6 56.002 6.386 56.909 7 57.613V55V43V7C7 5.346 8.346 4 10 4H14H56H58.613C57.909 3.386 57.002 3 56 3Z" fill="#B3EBF2"/>
<path d="M14 51V11H52H53C53 10.448 52.552 10 52 10H14C13.448 10 13 10.448 13 11V51C13 51.552 13.448 52 14 52V51Z" fill="#B3EBF2"/>
<path d="M52 9C53.1 9 54 9.9 54 11V51C54 52.1 53.1 53 52 53H14C12.9 53 12 52.1 12 51V11C12 9.9 12.9 9 14 9H52ZM52 8H14C12.346 8 11 9.346 11 11V51C11 52.654 12.346 54 14 54H52C53.654 54 55 52.654 55 51V11C55 9.346 53.654 8 52 8Z" fill="#B3EBF2"/>
<path d="M52 8H14C12.346 8 11 9.346 11 11V51C11 51.883 11.391 52.67 12 53.22V51V40V11C12 9.9 12.9 9 14 9H15H52H54.22C53.67 8.391 52.883 8 52 8Z" fill="#26C6DA"/>
<path d="M59 4.38699V6.99999V55C59 56.654 57.654 58 56 58H7.38696C8.09096 58.614 8.99796 59 9.99996 59H56C58.2 59 60 57.2 60 55V6.99999C60 5.99799 59.614 5.09099 59 4.38699Z" fill="#26C6DA"/>
<path d="M50 37H54V49H50V37Z" fill="#26C6DA"/>
<path d="M50 13H54V25H50V13Z" fill="#26C6DA"/>
<path d="M52 10C52.552 10 53 10.448 53 11V51C53 51.552 52.552 52 52 52H14C13.448 52 13 51.552 13 51V11C13 10.448 13.448 10 14 10H52ZM52 9H14C12.9 9 12 9.9 12 11V51C12 52.1 12.9 53 14 53H52C53.1 53 54 52.1 54 51V11C54 9.9 53.1 9 52 9Z" fill="#37474F"/>
<path opacity="0.2" d="M52 15H57V25H52V15Z" fill="#37474F"/>
<path opacity="0.2" d="M52 39H57V49H52V39Z" fill="#37474F"/>
<path d="M51 14H56V24H51V14Z" fill="#80DEEA"/>
<path d="M51 38H56V48H51V38Z" fill="#80DEEA"/>
<path d="M54 14H56V24H54V14Z" fill="#4DD0E1"/>
<path d="M54 38H56V48H54V38Z" fill="#4DD0E1"/>
<path d="M52 14H53V24H52V14Z" fill="#B3EBF2"/>
<path d="M52 38H53V48H52V38Z" fill="#B3EBF2"/>
<g opacity="0.2">
<path d="M18 51C23.5228 51 28 46.5228 28 41C28 35.4772 23.5228 31 18 31C12.4772 31 8 35.4772 8 41C8 46.5228 12.4772 51 18 51Z" fill="#37474F"/>
<path d="M10 59H27V55H30V51H18H10V55H7V57.613C7.734 58.455 8.802 59 10 59Z" fill="#37474F"/>
</g>
<path d="M6 57H26V61H6V57Z" fill="#FFD740"/>
<path d="M6 57H15V61H6V57Z" fill="#FFE57F"/>
<path d="M6 60H26V61H6V60Z" fill="#FFC400"/>
<path d="M7 57H8V60H7V57Z" fill="white"/>
<path d="M19 57H20V60H19V57Z" fill="#FFC400"/>
<path d="M21 57H22V60H21V57Z" fill="#FFC400"/>
<path d="M23 57H24V60H23V57Z" fill="#FFC400"/>
<path d="M25 57H26V60H25V57Z" fill="#FFC400"/>
<path d="M4 53H24V57H4V53Z" fill="#FFD740"/>
<path d="M4 53H13V57H4V53Z" fill="#FFE57F"/>
<path d="M4 56H24V57H4V56Z" fill="#FFC400"/>
<path d="M5 53H6V56H5V53Z" fill="white"/>
<path d="M17 53H18V56H17V53Z" fill="#FFC400"/>
<path d="M19 53H20V56H19V53Z" fill="#FFC400"/>
<path d="M21 53H22V56H21V53Z" fill="#FFC400"/>
<path d="M23 53H24V56H23V53Z" fill="#FFC400"/>
<path d="M8.22903 45.695C4.52603 41.991 4.52603 35.965 8.22903 32.26C11.933 28.556 17.96 28.556 21.665 32.26C25.37 35.964 25.369 41.99 21.665 45.695C17.961 49.4 11.933 49.399 8.22903 45.695Z" fill="#FFD740"/>
<path d="M9.64002 44.284C6.71602 41.357 6.71602 36.597 9.64002 33.672C12.567 30.746 17.328 30.746 20.253 33.672C23.178 36.598 23.178 41.358 20.253 44.284C17.327 47.209 12.566 47.209 9.64002 44.284Z" fill="#FFE57F"/>
<path d="M15 30C19.963 30 24 34.037 24 39C24 43.963 19.963 48 15 48C10.037 48 6 43.963 6 39C6 34.037 10.037 30 15 30ZM15 29C9.477 29 5 33.478 5 39C5 44.522 9.477 49 15 49C20.523 49 25 44.522 25 39C25 33.478 20.523 29 15 29Z" fill="#FDD835"/>
<path d="M7.18905 44.327C5.62205 40.68 6.31305 36.299 9.29005 33.321C12.4221 30.188 17.1091 29.584 20.8581 31.48C20.857 31.374 20.858 31.267 20.866 31.161C17.0131 28.802 11.916 29.28 8.58205 32.614C5.39905 35.797 4.81205 40.593 6.81905 44.373C6.94105 44.353 7.06405 44.336 7.18905 44.327Z" fill="white"/>
<path d="M15 46.5C10.864 46.5 7.5 43.136 7.5 39C7.5 34.864 10.864 31.5 15 31.5C19.136 31.5 22.5 34.864 22.5 39C22.5 43.136 19.136 46.5 15 46.5Z" fill="#FFE57F"/>
<path d="M15 32C18.859 32 22 35.141 22 39C22 42.859 18.859 46 15 46C11.141 46 8 42.859 8 39C8 35.141 11.141 32 15 32ZM15 31C10.582 31 7 34.584 7 39C7 43.416 10.582 47 15 47C19.418 47 23 43.416 23 39C23 34.584 19.418 31 15 31Z" fill="#FFC400"/>
<path d="M15.6903 43.3031C15.6135 43.3027 15.5375 43.2865 15.4672 43.2555C15.3968 43.2245 15.3336 43.1794 15.2814 43.1229L12.1625 39.7684C12.0584 39.6633 12 39.5213 12 39.3733C12 39.2254 12.0584 39.0834 12.1625 38.9783C12.264 38.8835 12.398 38.8314 12.5368 38.8327H14.0824C14.3428 38.8282 14.5966 38.7503 14.8148 38.6081C15.033 38.4659 15.2067 38.2651 15.3161 38.0288H13.0913C12.954 38.0134 12.8272 37.9481 12.7351 37.8451C12.6431 37.7422 12.5921 37.6089 12.5921 37.4708C12.5921 37.3327 12.6431 37.1995 12.7351 37.0965C12.8272 36.9936 12.954 36.9282 13.0913 36.9129H15.3507C15.2404 36.6778 15.0662 36.4785 14.8481 36.3376C14.63 36.1966 14.3767 36.1198 14.117 36.1159H12.5714C12.4342 36.1005 12.3074 36.0352 12.2153 35.9322C12.1232 35.8293 12.0723 35.696 12.0723 35.5579C12.0723 35.4198 12.1232 35.2866 12.2153 35.1836C12.3074 35.0807 12.4342 35.0153 12.5714 35H17.423C17.5603 35.0153 17.6871 35.0807 17.7791 35.1836C17.8712 35.2866 17.9221 35.4198 17.9221 35.5579C17.9221 35.696 17.8712 35.8293 17.7791 35.9322C17.6871 36.0352 17.5603 36.1005 17.423 36.1159H16.1824C16.3432 36.3586 16.4583 36.6288 16.522 36.9129H17.4369C17.5741 36.9282 17.7009 36.9936 17.793 37.0965C17.8851 37.1995 17.936 37.3327 17.936 37.4708C17.936 37.6089 17.8851 37.7422 17.793 37.8451C17.7009 37.9481 17.5741 38.0134 17.4369 38.0288H16.5289C16.4023 38.5739 16.0952 39.0602 15.6573 39.4087C15.2195 39.7572 14.6766 39.9475 14.117 39.9486H13.8536L16.1339 42.4021C16.2376 42.5061 16.2958 42.6469 16.2958 42.7937C16.2958 42.9405 16.2376 43.0814 16.1339 43.1853C16.0722 43.2347 16.0009 43.2707 15.9245 43.291C15.8481 43.3113 15.7684 43.3154 15.6903 43.3031Z" fill="#FFAB00"/>
<path d="M15 30C19.963 30 24 34.037 24 39C24 43.963 19.963 48 15 48C10.037 48 6 43.963 6 39C6 34.037 10.037 30 15 30ZM15 29C9.477 29 5 33.478 5 39C5 44.522 9.477 49 15 49C20.523 49 25 44.522 25 39C25 33.478 20.523 29 15 29Z" fill="#FFC400"/>
<path d="M7 49H27V53H7V49Z" fill="#FFD740"/>
<path d="M7 49H16V53H7V49Z" fill="#FFE57F"/>
<path d="M7 52H27V53H7V52Z" fill="#FFC400"/>
<path d="M8 49H9V52H8V49Z" fill="white"/>
<path d="M20 49H21V52H20V49Z" fill="#FFC400"/>
<path d="M22 49H23V52H22V49Z" fill="#FFC400"/>
<path d="M24 49H25V52H24V49Z" fill="#FFC400"/>
<path d="M26 49H27V52H26V49Z" fill="#FFC400"/>
</svg>
