<?xml version="1.0" standalone="no"?>
<svg xmlns:xlink="http://www.w3.org/1999/xlink" id="wave" style="transform:rotate(0deg); transition: 0.3s" viewBox="0 0 1440 280" version="1.1" xmlns="http://www.w3.org/2000/svg"><defs><linearGradient id="sw-gradient-0" x1="0" x2="0" y1="1" y2="0"><stop stop-color="rgba(255, 255, 255, 1)" offset="0%"/><stop stop-color="rgba(255, 255, 255, 1)" offset="100%"/></linearGradient></defs><path style="transform:translate(0, 0px); opacity:1" fill="url(#sw-gradient-0)" d="M0,84L60,74.7C120,65,240,47,360,37.3C480,28,600,28,720,42C840,56,960,84,1080,107.3C1200,131,1320,149,1440,163.3C1560,177,1680,187,1800,158.7C1920,131,2040,65,2160,60.7C2280,56,2400,112,2520,140C2640,168,2760,168,2880,158.7C3000,149,3120,131,3240,144.7C3360,159,3480,205,3600,214.7C3720,224,3840,196,3960,168C4080,140,4200,112,4320,98C4440,84,4560,84,4680,74.7C4800,65,4920,47,5040,51.3C5160,56,5280,84,5400,84C5520,84,5640,56,5760,42C5880,28,6000,28,6120,28C6240,28,6360,28,6480,42C6600,56,6720,84,6840,107.3C6960,131,7080,149,7200,163.3C7320,177,7440,187,7560,172.7C7680,159,7800,121,7920,107.3C8040,93,8160,103,8280,112C8400,121,8520,131,8580,135.3L8640,140L8640,280L8580,280C8520,280,8400,280,8280,280C8160,280,8040,280,7920,280C7800,280,7680,280,7560,280C7440,280,7320,280,7200,280C7080,280,6960,280,6840,280C6720,280,6600,280,6480,280C6360,280,6240,280,6120,280C6000,280,5880,280,5760,280C5640,280,5520,280,5400,280C5280,280,5160,280,5040,280C4920,280,4800,280,4680,280C4560,280,4440,280,4320,280C4200,280,4080,280,3960,280C3840,280,3720,280,3600,280C3480,280,3360,280,3240,280C3120,280,3000,280,2880,280C2760,280,2640,280,2520,280C2400,280,2280,280,2160,280C2040,280,1920,280,1800,280C1680,280,1560,280,1440,280C1320,280,1200,280,1080,280C960,280,840,280,720,280C600,280,480,280,360,280C240,280,120,280,60,280L0,280Z"/></svg>