<svg xmlns="http://www.w3.org/2000/svg" version="1.1" xmlns:xlink="http://www.w3.org/1999/xlink" width="512" height="512" x="0" y="0" viewBox="0 0 64 64" style="enable-background:new 0 0 512 512" xml:space="preserve" class=""><g><path d="m39.487 31.88-.716-.4c.013-.16.019-.32.019-.48q0-.237-.02-.48l.717-.4a1 1 0 0 0 .479-1.131 7.943 7.943 0 0 0-2.202-3.703 1 1 0 0 0-1.178-.148l-.714.445a6.768 6.768 0 0 0-.942-.532v-.794a1 1 0 0 0-.742-.966 8.309 8.309 0 0 0-4.377.004 1 1 0 0 0-.741.966v.79a5.84 5.84 0 0 0-.897.51l-.757-.421a1.002 1.002 0 0 0-1.176.149 7.944 7.944 0 0 0-2.206 3.7 1 1 0 0 0 .478 1.13l.717.401q-.02.244-.02.48c0 .16.007.319.02.48l-.717.4a1 1 0 0 0-.478 1.132 7.949 7.949 0 0 0 2.202 3.702 1 1 0 0 0 1.176.148l.716-.445a6.797 6.797 0 0 0 .942.532v.794a1 1 0 0 0 .741.966 8.46 8.46 0 0 0 2.191.291h.103a8.454 8.454 0 0 0 2.084-.295 1 1 0 0 0 .741-.966v-.79a5.84 5.84 0 0 0 .897-.51l.757.421a1.001 1.001 0 0 0 1.176-.149 7.946 7.946 0 0 0 2.206-3.7 1 1 0 0 0-.479-1.13zm-2.78-1.713a4.226 4.226 0 0 1 0 1.666 1 1 0 0 0 .495 1.062l.585.327a5.924 5.924 0 0 1-.912 1.51l-.072-.04a1.972 1.972 0 0 0-2.05.068 4.815 4.815 0 0 1-.712.396 1.905 1.905 0 0 0-1.11 1.74v.033a6.172 6.172 0 0 1-.85.07 6.697 6.697 0 0 1-1.011-.068v-.036a1.906 1.906 0 0 0-1.11-1.739 4.754 4.754 0 0 1-.713-.397 1.971 1.971 0 0 0-2.049-.067l-.077.043a5.946 5.946 0 0 1-.91-1.513l.587-.327a1 1 0 0 0 .495-1.06 4.24 4.24 0 0 1 0-1.67 1 1 0 0 0-.495-1.06l-.585-.327a5.932 5.932 0 0 1 .912-1.51l.072.04a1.969 1.969 0 0 0 2.05-.068 4.795 4.795 0 0 1 .712-.396 1.906 1.906 0 0 0 1.11-1.74v-.033a6.201 6.201 0 0 1 1.861-.002v.035a1.905 1.905 0 0 0 1.11 1.74 4.754 4.754 0 0 1 .713.397 1.971 1.971 0 0 0 2.05.067l.076-.043a5.952 5.952 0 0 1 .909 1.513l-.587.327a1 1 0 0 0-.494 1.061z" fill="#ed1d24" opacity="1" data-original="#000000" class=""></path><path d="M32 27.5a3.5 3.5 0 1 0 3.5 3.5 3.504 3.504 0 0 0-3.5-3.5zm0 5a1.5 1.5 0 1 1 1.5-1.5 1.502 1.502 0 0 1-1.5 1.5z" fill="#ed1d24" opacity="1" data-original="#000000" class=""></path><path d="M22 20a3.003 3.003 0 0 0-3 3v17h-1a1 1 0 0 0-1 1v2a3.003 3.003 0 0 0 3 3h24a3.003 3.003 0 0 0 3-3v-2a1 1 0 0 0-1-1h-1V23a3.003 3.003 0 0 0-3-3zm23 23a1.001 1.001 0 0 1-1 1H20a1.001 1.001 0 0 1-1-1v-1h26zm-2-20v17H21V23a1.001 1.001 0 0 1 1-1h20a1.001 1.001 0 0 1 1 1zM2 55h2v7a1 1 0 0 0 1 1h12a1 1 0 0 0 1-1v-7h2a1 1 0 0 0 .707-1.707l-9-9a1 1 0 0 0-1.414 0l-9 9A1 1 0 0 0 2 55zm10 6h-2v-3h2zm-1-14.586L17.586 53H17a1 1 0 0 0-1 1v7h-2v-4a1 1 0 0 0-1-1H9a1 1 0 0 0-1 1v4H6v-7a1 1 0 0 0-1-1h-.586zM48 24h14a1 1 0 0 0 1-1V3a2.002 2.002 0 0 0-2-2H49a2.002 2.002 0 0 0-2 2v20a1 1 0 0 0 1 1zm8-5v3h-2v-3zM49 3h12v19h-3v-3h1v-2h-8v2h1v3h-3z" fill="#ed1d24" opacity="1" data-original="#000000" class=""></path><path d="M50 5h2v2h-2zM54 5h2v2h-2zM58 5h2v2h-2zM50 9h2v2h-2zM54 9h2v2h-2zM58 9h2v2h-2zM50 13h2v2h-2zM54 13h2v2h-2zM58 13h2v2h-2zM7 25a15.017 15.017 0 0 1 15-15h14v2a1 1 0 0 0 1.515.857l5-3a1 1 0 0 0 0-1.714l-5-3A1 1 0 0 0 36 6v2H22A17.019 17.019 0 0 0 5 25v16h2zM38 7.766 40.056 9 38 10.234zM59 40V30h-2v10a15.017 15.017 0 0 1-15 15H32v-2a1 1 0 0 0-1.515-.857l-5 3a1 1 0 0 0 0 1.714l5 3A1 1 0 0 0 32 59v-2h10a17.019 17.019 0 0 0 17-17zM30 57.234 27.944 56 30 54.766z" fill="#ed1d24" opacity="1" data-original="#000000" class=""></path></g></svg>
