<svg width="64" height="64" viewBox="0 0 64 64" fill="none" xmlns="http://www.w3.org/2000/svg">
<path d="M32 64C48.9137 64 62.625 50.2887 62.625 33.375C62.625 16.4613 48.9137 2.75 32 2.75C15.0863 2.75 1.375 16.4613 1.375 33.375C1.375 50.2887 15.0863 64 32 64Z" fill="#85ADDF"/>
<path d="M54.1505 0H18.0868C17.3964 0 16.8368 0.559625 16.8368 1.25V28.2985L19.7145 27.0203C19.956 26.913 20.2124 26.8586 20.4767 26.8586C20.7409 26.8586 20.9973 26.913 21.2388 27.0203L32.1138 31.8509C32.7913 32.1518 33.229 32.8252 33.229 33.5666V41.4875C33.229 43.1559 33.0312 44.6845 32.6358 46.0904C32.9028 46.269 33.154 46.4749 33.3859 46.7066L34.4129 47.7337L35.4399 46.7066C36.3728 45.7739 37.6184 45.2603 38.947 45.2603C40.2758 45.2603 41.5213 45.7739 42.4543 46.7066C43.5165 47.7689 43.9939 49.197 43.8892 50.5891H54.1503C54.8407 50.5891 55.4003 50.0295 55.4003 49.3391V1.25C55.4005 0.559625 54.8409 0 54.1505 0Z" fill="#EAF6FF"/>
<path d="M19.7147 27.0203C19.9562 26.913 20.2125 26.8586 20.4768 26.8586C20.741 26.8586 20.9974 26.913 21.2389 27.0203L21.8368 27.2859V1.25C21.8368 0.559625 22.3964 0 23.0868 0H18.0868C17.3964 0 16.8368 0.559625 16.8368 1.25V28.2985L19.7147 27.0203Z" fill="#D8ECFE"/>
<path d="M47.6853 19.0741H24.552C24.0343 19.0741 23.6145 18.6545 23.6145 18.1366C23.6145 17.6188 24.0343 17.1991 24.552 17.1991H47.6853C48.203 17.1991 48.6228 17.6188 48.6228 18.1366C48.6228 18.6545 48.2031 19.0741 47.6853 19.0741Z" fill="#017B4E"/>
<path d="M47.6853 22.8401H24.552C24.0343 22.8401 23.6145 22.4205 23.6145 21.9026C23.6145 21.3847 24.0343 20.9651 24.552 20.9651H47.6853C48.203 20.9651 48.6228 21.3847 48.6228 21.9026C48.6228 22.4205 48.2031 22.8401 47.6853 22.8401Z" fill="#017B4E"/>
<path d="M47.6853 26.6061H24.552C24.0343 26.6061 23.6145 26.1865 23.6145 25.6686C23.6145 25.1508 24.0343 24.7311 24.552 24.7311H47.6853C48.203 24.7311 48.6228 25.1508 48.6228 25.6686C48.6228 26.1865 48.2031 26.6061 47.6853 26.6061Z" fill="#017B4E"/>
<path d="M47.6852 33.6H36.3337C35.816 33.6 35.3962 33.1804 35.3962 32.6625C35.3962 32.1446 35.816 31.725 36.3337 31.725H47.6852C48.203 31.725 48.6227 32.1446 48.6227 32.6625C48.6227 33.1804 48.2031 33.6 47.6852 33.6Z" fill="#09A76D"/>
<path d="M47.6852 10.6406H36.3337C35.816 10.6406 35.3962 10.221 35.3962 9.70312C35.3962 9.18525 35.816 8.76562 36.3337 8.76562H47.6852C48.203 8.76562 48.6227 9.18525 48.6227 9.70312C48.6227 10.221 48.2031 10.6406 47.6852 10.6406Z" fill="#09A76D"/>
<path d="M47.6852 37.366H36.3337C35.816 37.366 35.3962 36.9464 35.3962 36.4285C35.3962 35.9106 35.816 35.491 36.3337 35.491H47.6852C48.203 35.491 48.6227 35.9106 48.6227 36.4285C48.6227 36.9464 48.2031 37.366 47.6852 37.366Z" fill="#09A76D"/>
<path d="M47.6852 41.132H36.3337C35.816 41.132 35.3962 40.7124 35.3962 40.1945C35.3962 39.6766 35.816 39.257 36.3337 39.257H47.6852C48.203 39.257 48.6227 39.6766 48.6227 40.1945C48.6227 40.7124 48.2031 41.132 47.6852 41.132Z" fill="#09A76D"/>
<path d="M26.2612 53.6046H22.3416C21.8936 53.6046 21.5291 53.2401 21.5291 52.7921C21.5291 52.3441 21.8936 51.9796 22.3416 51.9796H25.2457C24.5741 50.2096 24.9485 48.1299 26.3717 46.7065C27.3046 45.7737 28.5502 45.2601 29.879 45.2601C30.9246 45.2601 31.9179 45.5795 32.7487 46.1695C33.1441 44.776 33.3542 43.226 33.3542 41.4874V33.5665C33.3542 32.775 32.888 32.0577 32.1646 31.7365L21.2896 26.906C20.7721 26.6761 20.1814 26.6761 19.6639 26.906L8.78887 31.7365C8.06549 32.0577 7.59924 32.775 7.59924 33.5665V41.4874C7.59924 49.9207 12.5311 53.9232 19.6677 57.0901C20.1822 57.3185 20.7714 57.3185 21.2859 57.0901C23.31 56.1919 25.1565 55.2262 26.7636 54.1116C26.6312 53.9796 26.5001 53.8487 26.3717 53.7207C26.3337 53.6829 26.2979 53.6435 26.2612 53.6046Z" fill="#09A76D"/>
<path d="M23.6946 55.858C16.2442 52.5518 11.0955 48.3734 11.0955 39.5691V31.3C11.0955 31.0817 11.1304 30.8692 11.1942 30.668L8.78887 31.7365C8.06549 32.0577 7.59924 32.775 7.59924 33.5665V41.4874C7.59924 49.9207 12.5311 53.9233 19.6677 57.0901C20.1822 57.3185 20.7714 57.3185 21.2859 57.0901C22.153 56.7054 22.9872 56.308 23.7844 55.8921C23.7545 55.8806 23.724 55.871 23.6946 55.858Z" fill="#02905D"/>
<path d="M26.631 38.8797H23.1234V35.3721C23.1234 35.027 22.8435 34.7471 22.4984 34.7471H18.455C18.1099 34.7471 17.83 35.027 17.83 35.3721V38.8797H14.3224C13.9773 38.8797 13.6974 39.1596 13.6974 39.5047V43.5481C13.6974 43.8932 13.9773 44.1731 14.3224 44.1731H17.83V47.6807C17.83 48.0259 18.1099 48.3057 18.455 48.3057H22.4984C22.8435 48.3057 23.1234 48.0259 23.1234 47.6807V44.1731H26.631C26.9761 44.1731 27.256 43.8932 27.256 43.5481V39.5047C27.256 39.1596 26.9763 38.8797 26.631 38.8797Z" fill="white"/>
<path d="M20.0384 46.7225C19.6933 46.7225 19.4134 46.4426 19.4134 46.0975V43.2149C19.4134 42.8697 19.1335 42.5899 18.7884 42.5899H15.9058C15.5606 42.5899 15.2808 42.31 15.2808 41.9649V38.8797H14.3224C13.9773 38.8797 13.6974 39.1596 13.6974 39.5047V43.5481C13.6974 43.8932 13.9773 44.1731 14.3224 44.1731H17.83V47.6807C17.83 48.0259 18.1099 48.3057 18.455 48.3057H22.4984C22.8435 48.3057 23.1234 48.0259 23.1234 47.6807V46.7224H20.0384V46.7225Z" fill="#EAF6FF"/>
<path d="M37.9601 54.7519C37.6711 54.7519 37.4017 54.5965 37.2569 54.3465L36.0527 52.2665L34.1716 56.4333C34.0457 56.7121 33.7774 56.895 33.4718 56.9103C33.4578 56.911 33.4443 56.9114 33.4309 56.9114C33.1418 56.9114 32.8724 56.7559 32.7278 56.5056L31.0506 53.6046H26.0907C26.1529 53.6741 26.2171 53.7426 26.2839 53.8094C29.1139 56.6325 32.5488 60.0534 33.8438 61.3318C34.0018 61.4878 34.2077 61.5656 34.4137 61.5656C34.6197 61.5656 34.8256 61.4876 34.9836 61.3318C36.1376 60.1925 38.9889 57.3539 41.5984 54.7518H37.9601V54.7519Z" fill="#FB2B3A"/>
<path d="M31.5189 51.9796C31.8081 51.9796 32.0776 52.1351 32.2223 52.3855L33.3418 54.3216L35.2224 50.156C35.3483 49.8773 35.6163 49.6944 35.9219 49.679C35.9372 49.6781 35.9519 49.6778 35.9666 49.6778C36.2532 49.6778 36.5212 49.8331 36.6661 50.0833L38.4283 53.1269H43.1138C44.5011 51.1446 44.3117 48.3871 42.5429 46.6183C41.5864 45.6619 40.3096 45.1351 38.9474 45.1351C37.5852 45.1351 36.3084 45.6619 35.3518 46.6183L34.4132 47.5569L33.4746 46.6183C32.5181 45.6619 31.2412 45.1351 29.8791 45.1351C28.5168 45.1351 27.2401 45.6619 26.2834 46.6183C24.8362 48.0655 24.4466 50.1746 25.1122 51.9796H31.5189Z" fill="#FB2B3A"/>
<path d="M28.9237 53.6046H26.0903C26.1526 53.6741 26.2167 53.7426 26.2836 53.8094C29.1136 56.6325 32.5485 60.0534 33.8435 61.3317C34.0015 61.4877 34.2073 61.5656 34.4133 61.5656C34.6193 61.5656 34.8252 61.4876 34.9832 61.3317C35.2063 61.1115 35.4941 60.8265 35.8301 60.4932C34.2153 58.8914 31.4595 56.1462 29.1171 53.8094C29.0501 53.7426 28.986 53.6741 28.9237 53.6046Z" fill="#E41F2D"/>
<path d="M27.9457 51.9796C27.2801 50.1746 27.6697 48.0655 29.1169 46.6183C29.7316 46.0036 30.4789 45.5676 31.2958 45.3338C30.8416 45.2036 30.3659 45.1351 29.8792 45.1351C28.5169 45.1351 27.2402 45.6619 26.2836 46.6183C24.8363 48.0655 24.4467 50.1746 25.1123 51.9796H27.9457Z" fill="#E41F2D"/>
<path d="M33.4307 57.0364C33.0973 57.0364 32.7874 56.8589 32.6193 56.5681L30.9781 53.7296H22.3417C21.8239 53.7296 21.4042 53.31 21.4042 52.7921C21.4042 52.2743 21.8239 51.8546 22.3417 51.8546H31.5189C31.8537 51.8546 32.1629 52.0331 32.3306 52.3229L33.328 54.0482L35.1086 50.1046C35.2532 49.7843 35.5648 49.5718 35.9158 49.5541C36.2673 49.5349 36.5982 49.7165 36.7744 50.0206L38.5005 53.0019H44.329C44.8468 53.0019 45.2665 53.4215 45.2665 53.9394C45.2665 54.4573 44.8468 54.8769 44.329 54.8769H37.96C37.6255 54.8769 37.3164 54.6986 37.1487 54.4091L36.0663 52.5399L34.2853 56.4847C34.1407 56.8051 33.8289 57.0178 33.4778 57.0353C33.462 57.036 33.4464 57.0364 33.4307 57.0364Z" fill="white"/>
<path d="M29.6903 14.3031C29.6135 14.3027 29.5375 14.2865 29.4672 14.2555C29.3968 14.2245 29.3336 14.1794 29.2814 14.1229L26.1625 10.7684C26.0584 10.6633 26 10.5213 26 10.3733C26 10.2254 26.0584 10.0834 26.1625 9.97829C26.264 9.88352 26.398 9.83141 26.5368 9.83274H28.0824C28.3428 9.82816 28.5966 9.75031 28.8148 9.60812C29.033 9.46593 29.2067 9.26514 29.3161 9.02877H27.0913C26.954 9.01345 26.8272 8.94807 26.7351 8.84514C26.6431 8.74221 26.5921 8.60895 26.5921 8.47084C26.5921 8.33273 26.6431 8.19947 26.7351 8.09654C26.8272 7.99361 26.954 7.92823 27.0913 7.91291H29.3507C29.2404 7.67783 29.0662 7.47848 28.8481 7.33756C28.63 7.19664 28.3767 7.11982 28.117 7.11586H26.5714C26.4342 7.10054 26.3074 7.03516 26.2153 6.93223C26.1232 6.8293 26.0723 6.69604 26.0723 6.55793C26.0723 6.41982 26.1232 6.28656 26.2153 6.18363C26.3074 6.0807 26.4342 6.01532 26.5714 6H31.423C31.5603 6.01532 31.6871 6.0807 31.7791 6.18363C31.8712 6.28656 31.9221 6.41982 31.9221 6.55793C31.9221 6.69604 31.8712 6.8293 31.7791 6.93223C31.6871 7.03516 31.5603 7.10054 31.423 7.11586H30.1824C30.3432 7.35865 30.4583 7.62876 30.522 7.91291H31.4369C31.5741 7.92823 31.7009 7.99361 31.793 8.09654C31.8851 8.19947 31.936 8.33273 31.936 8.47084C31.936 8.60895 31.8851 8.74221 31.793 8.84514C31.7009 8.94807 31.5741 9.01345 31.4369 9.02877H30.5289C30.4023 9.57388 30.0952 10.0602 29.6573 10.4087C29.2195 10.7572 28.6766 10.9475 28.117 10.9486H27.8536L30.1339 13.4021C30.2376 13.5061 30.2958 13.6469 30.2958 13.7937C30.2958 13.9405 30.2376 14.0814 30.1339 14.1853C30.0722 14.2347 30.0009 14.2707 29.9245 14.291C29.8481 14.3113 29.7684 14.3154 29.6903 14.3031Z" fill="#09A76D"/>
</svg>
