<svg width="64" height="64" viewBox="0 0 64 64" fill="none" xmlns="http://www.w3.org/2000/svg">
<g clip-path="url(#clip0_2415_2)">
<path d="M4.71875 11.0147L5.67236 12.7149L21.1138 4.02881L20.1602 2.32861L4.71875 11.0147Z" fill="#954C35"/>
<path d="M21.9717 2.32861L21.0181 4.02881L37.1738 13.062L38.1275 11.3618L21.9717 2.32861Z" fill="#954C35"/>
<path d="M63.6236 49.7134V51.9053C63.6236 55.4356 62.1065 58.7965 59.458 61.1314L59.3413 61.2335C57.8482 62.5494 55.9258 63.2764 53.9351 63.2764H45.7095C44.6836 63.2764 43.6753 63.0831 42.7354 62.7164C41.7954 62.3497 40.9238 61.8077 40.1685 61.1124C37.6426 58.7833 36.2051 55.504 36.2051 52.0679V49.6465C36.2051 42.2086 40.0078 37.0796 46.2852 33.0894L46.4063 33.0127V30.0562L44.2715 18.0269C44.1782 17.5816 44.5186 17.1626 44.9746 17.1626H54.7227C55.1773 17.1626 55.5176 17.5806 55.4258 18.0259L53.3145 30.0528V33.0127L53.4566 33.1016C59.7842 37.0816 63.6236 42.2388 63.6236 49.7134Z" fill="#20B7A1"/>
<path d="M63.6236 49.7134V51.9053C63.6236 55.4356 62.1065 58.7965 59.458 61.1314L59.3413 61.2335C57.8482 62.5494 55.9258 63.2764 53.9351 63.2764H49.0259C47.9995 63.2764 46.9917 63.0831 46.0518 62.7164C45.1118 62.3497 44.2402 61.8077 43.4849 61.1124C40.9585 58.7833 39.5215 55.504 39.5215 52.0679V49.6465C39.5215 42.2086 43.3237 37.0796 49.6011 33.0894L49.7227 33.0127V30.0562L47.5874 18.0269C47.4946 17.5816 47.835 17.1626 48.2905 17.1626H54.7227C55.1773 17.1626 55.5176 17.5806 55.4253 18.0259L53.3145 30.0528V33.0127L53.4566 33.1016C59.7842 37.0816 63.6236 42.2388 63.6236 49.7134Z" fill="#24D3B5"/>
<path d="M46.4062 30.0596H53.3149V33.0127H46.4062V30.0596Z" fill="#FFDE91"/>
<path d="M46.4062 30.0596H49.7222V33.0127H46.4062V30.0596Z" fill="#EDC472"/>
<path d="M40.711 59.5626C38.481 61.9913 35.5796 63.4322 32.5518 63.8624C28.6275 64.4215 24.4927 63.2803 21.3452 60.3902C15.7681 55.272 15.3975 46.6006 20.5176 41.0245C23.6934 37.564 28.2373 36.1089 32.5606 36.7247C35.2051 37.1016 37.7676 38.253 39.8833 40.1968C45.4605 45.3155 45.8306 53.9869 40.711 59.5626Z" fill="#FFDE91"/>
<path d="M40.7109 59.5626C38.4809 61.9913 35.5795 63.4322 32.5517 63.8624C29.9072 63.4854 27.3447 62.334 25.2289 60.3902C19.6518 55.272 19.2817 46.6006 24.4013 41.0244C26.6313 38.5957 29.5331 37.1548 32.5605 36.7246C35.205 37.1016 37.7675 38.253 39.8833 40.1968C45.4604 45.3155 45.8305 53.9869 40.7109 59.5626Z" fill="#FFE89C"/>
<path d="M40.2691 52.126C39.8115 54.5479 38.4692 56.6949 36.4927 58.1709C35.2896 59.0689 33.9458 59.6485 32.5645 59.9253C28.9575 60.649 25.0835 59.3106 22.7422 56.1724C21.1006 53.9727 20.4526 51.1646 20.9629 48.4668C21.4204 46.0435 22.7627 43.8965 24.7392 42.4214C26.8428 40.8521 29.4316 40.1958 32.0293 40.5723C32.2021 40.5972 32.375 40.627 32.5449 40.6607C34.9297 41.1363 37.0269 42.4566 38.4902 44.42C40.1314 46.6187 40.7798 49.4283 40.2691 52.126Z" fill="#DBAD5C"/>
<path d="M40.269 52.126C39.8115 54.5479 38.4692 56.6949 36.4926 58.1709C35.2895 59.0689 33.9458 59.6485 32.5644 59.9253C30.2685 59.4654 28.1284 58.1919 26.622 56.1724C24.9809 53.9727 24.3325 51.1646 24.8432 48.4668C25.3017 46.0435 26.643 43.8965 28.6206 42.4214C29.8046 41.5391 31.1401 40.9453 32.5449 40.6607C34.9296 41.1363 37.0268 42.4566 38.4902 44.42C40.1313 46.6187 40.7797 49.4283 40.269 52.126Z" fill="#EDC472"/>
<path d="M32.5785 56.3015C32.4831 56.3009 32.3889 56.2808 32.3016 56.2423C32.2143 56.2039 32.1359 56.1479 32.0711 56.0779L28.2016 51.916C28.0725 51.7856 28 51.6095 28 51.4259C28 51.2423 28.0725 51.0662 28.2016 50.9358C28.3275 50.8182 28.4938 50.7535 28.666 50.7552H30.5835C30.9066 50.7495 31.2215 50.6529 31.4922 50.4765C31.7629 50.3001 31.9785 50.051 32.1141 49.7577H29.3539C29.1836 49.7387 29.0263 49.6576 28.9121 49.5299C28.7978 49.4022 28.7347 49.2368 28.7347 49.0655C28.7347 48.8942 28.7978 48.7288 28.9121 48.6011C29.0263 48.4734 29.1836 48.3923 29.3539 48.3733H32.1571C32.0202 48.0816 31.8042 47.8343 31.5336 47.6595C31.263 47.4846 30.9487 47.3893 30.6265 47.3844H28.709C28.5387 47.3654 28.3814 47.2843 28.2671 47.1566C28.1529 47.0289 28.0897 46.8636 28.0897 46.6922C28.0897 46.5209 28.1529 46.3555 28.2671 46.2278C28.3814 46.1001 28.5387 46.019 28.709 46H34.7282C34.8985 46.019 35.0558 46.1001 35.17 46.2278C35.2843 46.3555 35.3474 46.5209 35.3474 46.6922C35.3474 46.8636 35.2843 47.0289 35.17 47.1566C35.0558 47.2843 34.8985 47.3654 34.7282 47.3844H33.189C33.3885 47.6856 33.5313 48.0208 33.6103 48.3733H34.7454C34.9157 48.3923 35.073 48.4734 35.1872 48.6011C35.3015 48.7288 35.3646 48.8942 35.3646 49.0655C35.3646 49.2368 35.3015 49.4022 35.1872 49.5299C35.073 49.6576 34.9157 49.7387 34.7454 49.7577H33.6189C33.4619 50.434 33.0807 51.0374 32.5375 51.4698C31.9943 51.9022 31.3208 52.1382 30.6265 52.1396H30.2998L33.1288 55.1836C33.2575 55.3126 33.3297 55.4873 33.3297 55.6694C33.3297 55.8516 33.2575 56.0263 33.1288 56.1553C33.0523 56.2166 32.9638 56.2612 32.8691 56.2864C32.7743 56.3116 32.6753 56.3167 32.5785 56.3015Z" fill="#FFE89C"/>
<path d="M24.3037 59.5626C22.0737 61.9913 19.1718 63.4322 16.1445 63.8624C12.2202 64.4215 8.0849 63.2803 4.93792 60.3902C-0.639718 55.272 -1.00984 46.6006 4.11029 41.0245C7.28607 37.564 11.83 36.1089 16.1533 36.7247C18.7978 37.1016 21.3603 38.253 23.476 40.1968C29.0532 45.3155 29.4233 53.9869 24.3037 59.5626Z" fill="#FFE89C"/>
<path d="M24.3037 59.5626C22.0738 61.9913 19.1719 63.4322 16.1445 63.8624C13.5 63.4854 10.9375 62.334 8.82179 60.3902C3.24463 55.272 2.87403 46.6006 7.99415 41.0244C10.2241 38.5957 13.1255 37.1548 16.1533 36.7246C18.7979 37.1016 21.3604 38.253 23.4761 40.1968C29.0532 45.3155 29.4234 53.9869 24.3037 59.5626Z" fill="#FCF2B6"/>
<path d="M23.8618 52.126C23.4043 54.5479 22.062 56.6949 20.0855 58.1709C18.8823 59.0689 17.5386 59.6485 16.1572 59.9253C12.5503 60.649 8.67626 59.3106 6.33495 56.1724C4.69335 53.9727 4.0454 51.1646 4.55565 48.4668C5.01317 46.0435 6.35546 43.8965 8.33202 42.4214C10.4355 40.8521 13.0244 40.1958 15.6221 40.5723C15.7949 40.5972 15.9678 40.627 16.1377 40.6607C18.5225 41.1363 20.6196 42.4566 22.083 44.42C23.7241 46.6187 24.3726 49.4283 23.8618 52.126Z" fill="#DBAD5C"/>
<path d="M23.8618 52.126C23.4043 54.5479 22.062 56.6949 20.0854 58.1709C18.8823 59.0689 17.5385 59.6485 16.1572 59.9253C13.8613 59.4654 11.7211 58.1919 10.2148 56.1724C8.57368 53.9727 7.92524 51.1646 8.43598 48.4668C8.89448 46.0435 10.2358 43.8965 12.2133 42.4214C13.3969 41.5391 14.7329 40.9453 16.1377 40.6607C18.5219 41.1363 20.6196 42.4566 22.083 44.42C23.7241 46.6187 24.3725 49.4283 23.8618 52.126Z" fill="#EDC472"/>
<path d="M41.2095 11.6973V31.0962C41.2095 32.0659 40.4248 32.8506 39.4551 32.8506H2.77197C1.80371 32.8506 1.01758 32.0659 1.01758 31.0962V11.6973C1.01758 10.7295 1.80371 9.94287 2.77197 9.94287H39.4551C40.4248 9.94287 41.2095 10.7295 41.2095 11.6973Z" fill="#C0694E"/>
<path d="M41.2095 11.6973V28.1944H6.32227C5.354 28.1944 4.56787 27.4092 4.56787 26.44V9.94287H39.4551C40.4248 9.94287 41.2095 10.7295 41.2095 11.6973Z" fill="#C97E67"/>
<path d="M10.4565 24.5449H6.62061V15.4746C6.62061 14.8184 5.48731 14.7124 4.8916 14.9951C4.68213 15.0952 4.57715 15.2549 4.57715 15.4746V25.6924C4.57715 25.9019 4.66895 26.0615 4.85254 26.1714C5.21973 26.3921 4.99316 26.3369 10.4561 26.3369C11.2588 26.3369 11.2891 24.5449 10.4565 24.5449Z" fill="#FFDE91"/>
<path d="M18.1748 15.6631C16.605 14.3398 11.8711 14.1563 11.8711 18.4453C11.8711 23.103 11.7881 23.6211 12.1543 24.5054C12.5171 25.3814 13.1665 25.9614 14.0952 26.2344C15.4131 26.6216 18.0796 26.6333 18.9605 24.5054C19.3252 23.624 19.2437 23.1152 19.2437 18.4453C19.2437 17.3848 18.9893 16.3511 18.1748 15.6631ZM17.2002 22.8316C17.2002 23.4605 17.0532 23.919 16.7598 24.207C16.1621 24.7944 14.9048 24.7837 14.3394 24.207C14.0562 23.919 13.9146 23.4605 13.9146 22.8316C13.9146 18.1548 13.7901 17.6299 14.3394 17.0703C14.9019 16.4971 16.1568 16.478 16.7598 17.0703C17.3296 17.6304 17.2002 18.1572 17.2002 22.8316Z" fill="#FFDE91"/>
<path d="M23.2515 15.4434C19.9526 26.1948 20.0552 25.5137 20.312 25.8335C20.7348 26.3633 21.9756 26.5962 22.167 25.9282L22.7641 23.8374H26.3642C27.0098 26.0982 26.9639 26.1167 27.2051 26.2427C27.6128 26.4551 28.4136 26.3032 28.8164 25.8262C29.0742 25.52 29.1977 26.2671 25.8769 15.4434C25.5918 14.5083 23.5307 14.5239 23.2515 15.4434ZM23.189 22.2339L24.5561 17.4082L25.9238 22.2339H23.189Z" fill="#FFDE91"/>
<path d="M35.6069 15.4746V21.794C32.0439 14.9072 32.2832 14.8457 31.0483 14.8457C30.6602 14.8457 30.0269 14.9785 30.0269 15.4903V25.6924C30.0269 26.5449 32.0703 26.5503 32.0703 25.6924V19.3731C35.7222 26.2012 35.5181 25.9907 35.9609 26.1953C36.3643 26.3814 36.8906 26.3955 37.3286 26.1714C37.543 26.0615 37.6509 25.9019 37.6509 25.6924V15.4746C37.6509 14.6406 35.6069 14.624 35.6069 15.4746Z" fill="#FFDE91"/>
<path d="M23.4531 2.33936C23.4531 3.63135 22.4058 4.67872 21.1138 4.67872C19.8218 4.67872 18.7749 3.63135 18.7749 2.33936C18.7749 1.04736 19.8218 0 21.1138 0C22.4058 0 23.4531 1.04736 23.4531 2.33936Z" fill="#EDC472"/>
<path d="M14.8641 56.3015C14.7688 56.3009 14.6745 56.2808 14.5873 56.2423C14.5 56.2039 14.4215 56.1479 14.3568 56.0779L10.4873 51.916C10.3581 51.7856 10.2856 51.6095 10.2856 51.4259C10.2856 51.2423 10.3581 51.0662 10.4873 50.9358C10.6131 50.8182 10.7794 50.7535 10.9516 50.7552H12.8692C13.1922 50.7495 13.5072 50.6529 13.7779 50.4765C14.0486 50.3001 14.2641 50.051 14.3998 49.7577H11.6395C11.4693 49.7387 11.3119 49.6576 11.1977 49.5299C11.0835 49.4022 11.0203 49.2368 11.0203 49.0655C11.0203 48.8942 11.0835 48.7288 11.1977 48.6011C11.3119 48.4734 11.4693 48.3923 11.6395 48.3733H14.4428C14.3059 48.0816 14.0898 47.8343 13.8192 47.6595C13.5486 47.4846 13.2343 47.3893 12.9122 47.3844H10.9946C10.8243 47.3654 10.667 47.2843 10.5528 47.1566C10.4385 47.0289 10.3754 46.8636 10.3754 46.6922C10.3754 46.5209 10.4385 46.3555 10.5528 46.2278C10.667 46.1001 10.8243 46.019 10.9946 46H17.0138C17.1841 46.019 17.3414 46.1001 17.4557 46.2278C17.5699 46.3555 17.6331 46.5209 17.6331 46.6922C17.6331 46.8636 17.5699 47.0289 17.4557 47.1566C17.3414 47.2843 17.1841 47.3654 17.0138 47.3844H15.4746C15.6741 47.6856 15.8169 48.0208 15.896 48.3733H17.031C17.2013 48.3923 17.3586 48.4734 17.4729 48.6011C17.5871 48.7288 17.6503 48.8942 17.6503 49.0655C17.6503 49.2368 17.5871 49.4022 17.4729 49.5299C17.3586 49.6576 17.2013 49.7387 17.031 49.7577H15.9046C15.7475 50.434 15.3664 51.0374 14.8232 51.4698C14.2799 51.9022 13.6065 52.1382 12.9122 52.1396H12.5854L15.4145 55.1836C15.5431 55.3126 15.6153 55.4873 15.6153 55.6694C15.6153 55.8516 15.5431 56.0263 15.4145 56.1553C15.3379 56.2166 15.2495 56.2612 15.1547 56.2864C15.0599 56.3116 14.961 56.3167 14.8641 56.3015Z" fill="#FFE89C"/>
</g>
<defs>
<clipPath id="clip0_2415_2">
<rect width="64" height="64" fill="white"/>
</clipPath>
</defs>
</svg>
