<svg width="64" height="64" viewBox="0 0 64 64" fill="none" xmlns="http://www.w3.org/2000/svg">
<g clip-path="url(#clip0_2387_2)">
<path fill-rule="evenodd" clip-rule="evenodd" d="M35.0139 50.1571H33.4963V48.1829H56.315V50.1571C57.1497 50.1571 57.8326 50.84 57.8326 51.6747V54.3224C57.8326 55.1571 57.1497 55.84 56.315 55.84V57.8142H33.4963V55.84H35.0139C34.1792 55.84 33.4963 55.1571 33.4963 54.3224V51.6747C33.4963 50.84 34.1792 50.1571 35.0139 50.1571Z" fill="#FFCB00"/>
<path fill-rule="evenodd" clip-rule="evenodd" d="M28.9864 50.1571H30.504V48.1829H7.68524V50.1571C6.85055 50.1571 6.16772 50.84 6.16772 51.6747V54.3224C6.16772 55.1571 6.85055 55.84 7.68524 55.84V57.8142H30.504V55.84H28.9864C29.8211 55.84 30.504 55.1571 30.504 54.3224V51.6747C30.504 50.84 29.8211 50.1571 28.9864 50.1571Z" fill="#FFCB00"/>
<path fill-rule="evenodd" clip-rule="evenodd" d="M30.504 51.6747C30.504 50.84 29.8211 50.1571 28.9864 50.1571H7.68524C6.85055 50.1571 6.16772 50.84 6.16772 51.6747H30.504Z" fill="#FFE705"/>
<path fill-rule="evenodd" clip-rule="evenodd" d="M23.5621 18.5539C23.1813 18.2717 23.1016 17.7339 23.3839 17.3531C23.6662 16.9723 24.2039 16.8925 24.5847 17.1749C29.6675 20.9531 31.0264 24.1158 32.0001 27.3969C32.9738 24.1158 34.3328 20.9531 39.4156 17.1749C39.7964 16.8925 40.3341 16.9723 40.6164 17.3531C40.8987 17.7339 40.8189 18.2717 40.4381 18.5539C35.1499 22.4849 34.2497 25.7021 33.2778 29.1755L32.8066 30.8028C32.5672 31.5394 31.4236 31.5807 31.1784 30.7566C31.0052 30.1857 30.8629 29.6778 30.7225 29.1755C29.7506 25.7021 28.8503 22.4849 23.5621 18.5539Z" fill="#854737"/>
<path d="M25.2958 55.84H3.9948C3.15664 55.84 2.47717 56.5195 2.47717 57.3577V60.0053C2.47717 60.8434 3.15664 61.5229 3.9948 61.5229H25.2958C26.134 61.5229 26.8134 60.8434 26.8134 60.0053V57.3577C26.8134 56.5195 26.134 55.84 25.2958 55.84Z" fill="#FFCB00"/>
<path fill-rule="evenodd" clip-rule="evenodd" d="M26.8134 57.3575C26.8134 56.5228 26.1305 55.84 25.2958 55.84H3.99474C3.16005 55.84 2.47717 56.5228 2.47717 57.3575H26.8134Z" fill="#FFE705"/>
<path d="M25.2958 44.4742H3.9948C3.15664 44.4742 2.47717 45.1537 2.47717 45.9919V48.6395C2.47717 49.4777 3.15664 50.1571 3.9948 50.1571H25.2958C26.134 50.1571 26.8134 49.4777 26.8134 48.6395V45.9919C26.8134 45.1537 26.134 44.4742 25.2958 44.4742Z" fill="#FFCB00"/>
<path fill-rule="evenodd" clip-rule="evenodd" d="M26.8134 45.9918C26.8134 45.1571 26.1305 44.4742 25.2958 44.4742H3.99474C3.16005 44.4742 2.47717 45.1571 2.47717 45.9918H26.8134Z" fill="#FFE705"/>
<path d="M60.0054 55.84H38.7044C37.8662 55.84 37.1868 56.5195 37.1868 57.3577V60.0053C37.1868 60.8434 37.8662 61.5229 38.7044 61.5229H60.0054C60.8436 61.5229 61.523 60.8434 61.523 60.0053V57.3577C61.523 56.5195 60.8436 55.84 60.0054 55.84Z" fill="#FFCB00"/>
<path fill-rule="evenodd" clip-rule="evenodd" d="M37.1868 57.3575C37.1868 56.5228 37.8696 55.84 38.7043 55.84H60.0054C60.8401 55.84 61.523 56.5228 61.523 57.3575H37.1868Z" fill="#FFE705"/>
<path fill-rule="evenodd" clip-rule="evenodd" d="M33.4963 51.6747C33.4963 50.84 34.1792 50.1571 35.0139 50.1571H56.315C57.1497 50.1571 57.8326 50.84 57.8326 51.6747H33.4963Z" fill="#FFE705"/>
<path d="M60.0054 44.4742H38.7044C37.8662 44.4742 37.1868 45.1537 37.1868 45.9919V48.6395C37.1868 49.4777 37.8662 50.1571 38.7044 50.1571H60.0054C60.8436 50.1571 61.523 49.4777 61.523 48.6395V45.9919C61.523 45.1537 60.8436 44.4742 60.0054 44.4742Z" fill="#FFCB00"/>
<path fill-rule="evenodd" clip-rule="evenodd" d="M37.1868 45.9918C37.1868 45.1571 37.8696 44.4742 38.7043 44.4742H60.0054C60.8401 44.4742 61.523 45.1571 61.523 45.9918H37.1868Z" fill="#FFE705"/>
<path d="M47.1627 49.3432C48.9953 40.9764 43.6983 32.7082 35.3316 30.8755C26.9648 29.0429 18.6966 34.3398 16.8639 42.7066C15.0313 51.0734 20.3283 59.3416 28.695 61.1742C37.0618 63.0069 45.33 57.7099 47.1627 49.3432Z" fill="#FE9D4E"/>
<path d="M34.9627 59.7448C42.5408 58.1176 47.3649 50.6553 45.7377 43.0772C44.1105 35.4991 36.6482 30.6749 29.0701 32.3021C21.492 33.9293 16.6679 41.3917 18.2951 48.9698C19.9223 56.5479 27.3846 61.372 34.9627 59.7448Z" fill="#FFCB00"/>
<path fill-rule="evenodd" clip-rule="evenodd" d="M2.47705 4.24827C18.0809 -1.18256 28.9882 6.59062 24.0735 17.8644C8.80819 23.1219 8.55063 7.23367 2.47705 4.24827Z" fill="#00D16C"/>
<path fill-rule="evenodd" clip-rule="evenodd" d="M61.5229 4.24813C45.9191 -1.18265 35.0117 6.59048 39.9265 17.8642C55.1918 23.1217 55.4494 7.23353 61.5229 4.24813Z" fill="#00D16C"/>
<path d="M36.208 42.9453C36.1526 42.8899 36.0818 42.8622 35.9957 42.8622H34.417C34.3122 42.3515 34.1153 41.9082 33.826 41.5327H35.9772C36.0635 41.5327 36.1341 41.505 36.1896 41.4498C36.2447 41.3944 36.2724 41.3235 36.2724 41.2374V40.2954C36.2724 40.2092 36.2448 40.1385 36.1896 40.0831C36.134 40.0278 36.0634 40 35.9771 40H28.2954C28.2092 40 28.1385 40.0278 28.083 40.083C28.0278 40.1385 28 40.2092 28 40.2954V41.5234C28 41.6034 28.0292 41.6726 28.0877 41.7311C28.1462 41.7895 28.2154 41.8188 28.2954 41.8188H29.6342C30.9329 41.8188 31.7577 42.1665 32.1085 42.8621H28.2954C28.2092 42.8621 28.1384 42.8897 28.083 42.9451C28.0278 43.0006 28 43.0712 28 43.1575V44.0993C28 44.1854 28.0276 44.2563 28.083 44.3115C28.1385 44.367 28.2093 44.3946 28.2954 44.3946H32.238C32.1025 44.8994 31.787 45.2841 31.2915 45.5488C30.7959 45.8135 30.142 45.9458 29.3295 45.9458H28.2954C28.2154 45.9458 28.1462 45.9751 28.0877 46.0335C28.0292 46.0921 28 46.1613 28 46.2413V47.4139C28 47.4941 28.0276 47.5618 28.083 47.6171C29.2648 48.8727 30.7975 50.6299 32.681 52.8891C32.7365 52.963 32.8134 52.9999 32.9119 52.9999H34.7122C34.8416 52.9999 34.9309 52.9446 34.98 52.8336C35.0415 52.7228 35.0295 52.6182 34.943 52.5197C33.1459 50.316 31.7332 48.6665 30.7052 47.5709C31.7517 47.4478 32.6011 47.1092 33.2536 46.5553C33.906 46.0014 34.3029 45.2811 34.4446 44.3947H35.9957C36.0818 44.3947 36.1527 44.3671 36.208 44.3117C36.2634 44.2564 36.2912 44.1856 36.2912 44.0995V43.1577C36.2912 43.0714 36.2634 43.0007 36.208 42.9453Z" fill="#FFE705"/>
</g>
<defs>
<clipPath id="clip0_2387_2">
<rect width="64" height="64" fill="white"/>
</clipPath>
</defs>
</svg>
