<svg width="60" height="62" viewBox="0 0 60 62" fill="none" xmlns="http://www.w3.org/2000/svg">
<path fill-rule="evenodd" clip-rule="evenodd" d="M35.4344 5.43615C37.8443 6.00965 40.1459 6.96502 42.2552 8.2639L46.6874 6.2954L51.9113 11.5191L49.9433 15.95C51.2426 18.0597 52.1979 20.3622 52.7716 22.7726L57.2934 24.5131V31.9006L52.7704 33.6415C52.1969 36.0515 51.2414 38.353 49.9427 40.4623L51.9112 44.8945L46.6874 50.1184L42.2566 48.1504C40.1469 49.4497 37.8444 50.4052 35.4339 50.9787L33.6934 55.5007H26.3059L24.5649 50.9777C22.1549 50.4042 19.8534 49.4488 17.7442 48.1499L13.3119 50.1184L8.08805 44.8947L10.0561 40.4638C8.75668 38.3541 7.80143 36.0515 7.2278 33.6412L2.70605 31.9006V24.5131L7.22855 22.7723C7.80205 20.3623 8.75756 18.0603 10.0566 15.9509L8.08818 11.5191L13.3119 6.29527L17.7442 8.26377C19.8536 6.96502 22.1552 6.00952 24.5649 5.43602L26.3061 0.913025H33.6934L35.4344 5.43615Z" fill="#FFE177"/>
<path fill-rule="evenodd" clip-rule="evenodd" d="M17.7444 48.1499L13.3121 50.1184L12.6296 49.4359L16.7851 47.5903C17.1006 47.7846 17.4205 47.9711 17.7444 48.1499ZM35.4345 5.43615C37.8444 6.00965 40.146 6.96502 42.2553 8.2639L40.9954 8.8234C38.8861 7.52465 35.6253 6.00965 33.2154 5.43615L31.4744 0.913147H33.6934L35.4345 5.43615ZM42.2568 48.1504C40.1471 49.4496 37.8446 50.4051 35.4341 50.9786L33.6936 55.5006H31.4746L33.2151 50.9786C35.6255 50.4051 38.8871 48.8901 40.9969 47.5909L42.2568 48.1504ZM12.6296 6.97777L13.3121 6.2954L17.7444 8.2639C17.4205 8.44265 17.1008 8.62915 16.7853 8.8234L12.6296 6.97777ZM45.1509 6.97777L46.6875 6.2954L51.9114 11.5191L49.9434 15.95C51.2426 18.0596 52.198 20.3621 52.7716 22.7726L57.2935 24.5131V31.9006L52.7705 33.6415C52.197 36.0515 51.2415 38.353 49.9428 40.4623L51.9113 44.8945L46.6875 50.1184L45.1509 49.4359L49.6923 44.8945L47.7238 40.4623C49.0225 38.353 49.9779 36.0514 50.5515 33.6415L55.0745 31.9006V24.5131L50.5526 22.7726C49.979 20.3621 49.0236 18.0596 47.7244 15.95L49.6924 11.5191L45.1509 6.97777Z" fill="#FFD064"/>
<path d="M43.3359 41.5501C50.705 34.1811 50.705 22.2335 43.3359 14.8644C35.9669 7.49536 24.0193 7.49536 16.6502 14.8644C9.28117 22.2335 9.28117 34.1811 16.6502 41.5501C24.0193 48.9192 35.9669 48.9192 43.3359 41.5501Z" fill="#ECEFF1"/>
<path fill-rule="evenodd" clip-rule="evenodd" d="M29.9996 9.33441C19.5758 9.33441 11.1272 17.783 11.1272 28.207C11.1272 38.6308 19.5758 47.0794 29.9996 47.0794C30.5049 47.0794 31.0054 47.059 31.5007 47.02C21.7789 46.255 14.1293 38.1254 14.1293 28.207C14.1293 18.2884 21.7789 10.1588 31.5007 9.39379C31.0056 9.35479 30.5049 9.33441 29.9996 9.33441Z" fill="#D1D1D6"/>
<path d="M9.04913 52.8135C14.047 52.8135 18.0985 48.762 18.0985 43.7642C18.0985 38.7663 14.047 34.7148 9.04913 34.7148C4.0513 34.7148 -0.000244141 38.7663 -0.000244141 43.7642C-0.000244141 48.762 4.0513 52.8135 9.04913 52.8135Z" fill="#FFC338"/>
<path fill-rule="evenodd" clip-rule="evenodd" d="M9.04916 34.7149C14.047 34.7149 18.0985 38.7664 18.0985 43.7643C18.0985 48.7622 14.0469 52.8137 9.04916 52.8137C8.78816 52.8137 8.52991 52.8019 8.27441 52.7803C12.9095 52.3872 16.549 48.5012 16.549 43.7643C16.549 39.0274 12.9095 35.1414 8.27441 34.7483C8.52979 34.7265 8.78816 34.7149 9.04916 34.7149Z" fill="#F5B829"/>
<path fill-rule="evenodd" clip-rule="evenodd" d="M42.1108 43.1155V50.4329C42.1108 51.1865 42.7275 51.8032 43.4811 51.8032H57.7952C58.5488 51.8032 59.1655 51.1865 59.1655 50.4329V43.1158L42.1108 43.1155Z" fill="#ECBA78"/>
<path fill-rule="evenodd" clip-rule="evenodd" d="M52.9952 38.9825L54.2933 38.9827V37.1917C54.2933 36.3852 53.6334 35.7253 52.8269 35.7253H48.4493C47.6428 35.7253 46.9829 36.3852 46.9829 37.1917V38.9827L48.281 38.9825V37.1917C48.281 37.1017 48.3594 37.0234 48.4493 37.0234H52.8269C52.9169 37.0234 52.9952 37.1017 52.9952 37.1917V38.9825Z" fill="#837683"/>
<path fill-rule="evenodd" clip-rule="evenodd" d="M52.9952 38.9825L54.2933 38.9827V38.9825H53.5389V37.1917C53.5389 37.1017 53.4607 37.0234 53.3707 37.0234H52.8269C52.9169 37.0234 52.9952 37.1017 52.9952 37.1917V38.9825ZM48.993 35.7253H48.4493C47.6428 35.7253 46.9829 36.3852 46.9829 37.1917V38.9827L47.5267 38.9825V37.1917C47.5267 36.3852 48.1865 35.7253 48.993 35.7253Z" fill="#685E68"/>
<path fill-rule="evenodd" clip-rule="evenodd" d="M42.1108 43.1155V50.4329C42.1108 51.1865 42.7275 51.8032 43.4811 51.8032H44.5687C43.8151 51.8032 43.1985 51.1865 43.1985 50.4329V43.1155H42.1108Z" fill="#E3A76F"/>
<path fill-rule="evenodd" clip-rule="evenodd" d="M58.7389 44.5794C58.8895 44.484 59.033 44.3825 59.1655 44.2738C59.6585 43.8691 60 43.3639 60 42.7005V39.3601C60 38.9734 59.6845 38.658 59.2979 38.658C53.4277 38.658 47.8485 38.658 41.9782 38.658C41.5916 38.658 41.2761 38.9734 41.2761 39.3601V42.7005C41.2761 43.3638 41.6177 43.869 42.1106 44.2736C42.2431 44.3825 42.3866 44.484 42.5373 44.5794C45.388 46.3829 55.9089 46.3698 58.7389 44.5794Z" fill="#E3A76F"/>
<path fill-rule="evenodd" clip-rule="evenodd" d="M45.7493 38.658H55.5268V40.9411C55.5268 41.4254 55.1306 41.8214 54.6465 41.8214H46.6295C46.1453 41.8214 45.7493 41.4253 45.7493 40.9411V38.658Z" fill="#C48958"/>
<path fill-rule="evenodd" clip-rule="evenodd" d="M43.1982 38.658H41.9782C41.5916 38.658 41.2761 38.9734 41.2761 39.3601V42.7005C41.2761 43.3638 41.6177 43.869 42.1106 44.2736C42.2431 44.3825 42.3866 44.484 42.5373 44.5794C42.7254 44.6984 42.9476 44.8093 43.1982 44.9124V38.658Z" fill="#C48958"/>
<path fill-rule="evenodd" clip-rule="evenodd" d="M48.9126 46.1487C48.9126 47.1017 49.6851 47.8742 50.6382 47.8742C51.5912 47.8742 52.3637 47.1017 52.3637 46.1487C52.3637 45.1987 51.5942 44.4232 50.6382 44.4232C49.6822 44.423 48.9126 45.1987 48.9126 46.1487Z" fill="#837683"/>
<path fill-rule="evenodd" clip-rule="evenodd" d="M48.9126 46.1487C48.9126 47.1017 49.6851 47.8742 50.6382 47.8742C50.7307 47.8742 50.8216 47.8668 50.9101 47.8528C50.0862 47.7224 49.4563 47.0092 49.4563 46.1487C49.4563 45.2907 50.0841 44.575 50.9101 44.4445C50.8216 44.4305 50.7307 44.4232 50.6382 44.4232C49.6822 44.423 48.9126 45.1987 48.9126 46.1487Z" fill="#685E68"/>
<path fill-rule="evenodd" clip-rule="evenodd" d="M37.2236 21.1516H39.5885C39.7683 21.1516 39.9151 21.2984 39.9151 21.4782V35.6659C39.9151 35.8457 39.7683 35.9925 39.5885 35.9925H37.2236C37.0437 35.9925 36.897 35.8457 36.897 35.6659V21.4782C36.897 21.2984 37.0437 21.1516 37.2236 21.1516Z" fill="#8AC9FE"/>
<path fill-rule="evenodd" clip-rule="evenodd" d="M39.2617 21.1516H39.5883C39.7682 21.1516 39.915 21.2982 39.915 21.4782V35.6659C39.915 35.8457 39.7682 35.9925 39.5883 35.9925H39.2617C39.4416 35.9925 39.5883 35.8457 39.5883 35.6659V21.4782C39.5883 21.2982 39.4416 21.1516 39.2617 21.1516Z" fill="#60B7FF"/>
<path fill-rule="evenodd" clip-rule="evenodd" d="M33.9843 24.0012H31.6196C31.4397 24.0012 31.293 24.1478 31.293 24.3278V35.6658C31.293 35.8457 31.4397 35.9925 31.6196 35.9925H33.9843C34.1642 35.9925 34.311 35.8457 34.311 35.6658V24.3278C34.311 24.1478 34.1642 24.0012 33.9843 24.0012Z" fill="#6CF5C2"/>
<path fill-rule="evenodd" clip-rule="evenodd" d="M33.9843 24.0012H33.3311C33.5109 24.0012 33.6577 24.1478 33.6577 24.3278V35.6658C33.6577 35.8457 33.5109 35.9925 33.3311 35.9925H33.9843C34.1642 35.9925 34.3109 35.8457 34.3109 35.6658V24.3278C34.3109 24.1478 34.1643 24.0012 33.9843 24.0012Z" fill="#00E499"/>
<path fill-rule="evenodd" clip-rule="evenodd" d="M28.3805 27.1689C27.5922 27.1689 26.804 27.1689 26.0156 27.1689C25.8357 27.1689 25.689 27.3156 25.689 27.4955V35.6659C25.689 35.8458 25.8357 35.9925 26.0156 35.9925H28.3805C28.5603 35.9925 28.7071 35.8458 28.7071 35.6659C28.7071 32.7636 28.7071 30.3978 28.7071 27.4955C28.7071 27.3156 28.5603 27.1689 28.3805 27.1689Z" fill="#FFE177"/>
<path fill-rule="evenodd" clip-rule="evenodd" d="M28.3803 27.1689H27.7271C27.9069 27.1689 28.0537 27.3156 28.0537 27.4955V35.6659C28.0537 35.8458 27.9069 35.9925 27.7271 35.9925H28.3803C28.5602 35.9925 28.7069 35.8458 28.7069 35.6659C28.7069 32.7636 28.7069 30.3979 28.7069 27.4955C28.7069 27.3156 28.5602 27.1689 28.3803 27.1689Z" fill="#FFD064"/>
<path fill-rule="evenodd" clip-rule="evenodd" d="M20.4116 30.2025H22.7763C22.9562 30.2025 23.103 30.3493 23.103 30.5291V35.6659C23.103 35.8458 22.9562 35.9925 22.7763 35.9925H20.4116C20.2317 35.9925 20.085 35.8458 20.085 35.6659V30.5291C20.085 30.3493 20.2317 30.2025 20.4116 30.2025Z" fill="#FE646F"/>
<path fill-rule="evenodd" clip-rule="evenodd" d="M22.123 30.2025H22.7763C22.9562 30.2025 23.1029 30.3493 23.1029 30.5291V35.6659C23.1029 35.8458 22.9562 35.9925 22.7763 35.9925H22.123C22.3029 35.9925 22.4497 35.8458 22.4497 35.6659V30.5291C22.4497 30.3493 22.3029 30.2025 22.123 30.2025Z" fill="#FD4755"/>
<path fill-rule="evenodd" clip-rule="evenodd" d="M19.9385 27.8361C19.6668 27.9309 19.3698 27.7874 19.275 27.5156C19.1803 27.2439 19.3238 26.9469 19.5955 26.8521C22.878 25.709 26.2595 24.2401 29.6058 22.3329C32.622 20.6138 35.6105 18.537 38.4733 16.0198L37.5277 16.0711C37.2402 16.0858 36.9952 15.8646 36.9805 15.5771C36.9659 15.2896 37.187 15.0446 37.4745 15.03L39.8882 14.899C40.1757 14.8844 40.4207 15.1055 40.4353 15.393C40.437 15.427 40.4354 15.4605 40.4309 15.493H40.4313L40.083 17.885C40.0424 18.1703 39.7783 18.3686 39.493 18.328C39.2078 18.2874 39.0095 18.0233 39.05 17.738L39.1897 16.779C36.2642 19.3548 33.2072 21.4799 30.1203 23.2393C26.7163 25.1795 23.2769 26.6736 19.9385 27.8361Z" fill="#A79BA7"/>
<path fill-rule="evenodd" clip-rule="evenodd" d="M18.6056 36.515C18.317 36.515 18.083 36.281 18.083 35.9924C18.083 35.7037 18.317 35.4697 18.6056 35.4697H41.3941C41.6828 35.4697 41.9168 35.7037 41.9168 35.9924C41.9168 36.281 41.6828 36.515 41.3941 36.515H18.6056Z" fill="#A79BA7"/>
<path fill-rule="evenodd" clip-rule="evenodd" d="M17.1469 61.0869L42.8531 61.0868C43.5551 61.0868 44.0746 60.4508 43.9345 59.763C42.6129 53.2765 36.8766 48.3955 30 48.3955C23.1232 48.3955 17.387 53.2766 16.0654 59.763C15.9254 60.4509 16.445 61.0869 17.1469 61.0869Z" fill="#8AC9FE"/>
<path fill-rule="evenodd" clip-rule="evenodd" d="M40.3398 61.0869H42.8532C43.5552 61.0869 44.0747 60.4508 43.9345 59.763C42.6129 53.2765 36.8767 48.3955 30 48.3955C29.5765 48.3955 29.1574 48.4143 28.7434 48.4505C35.053 49.003 40.181 53.676 41.4213 59.763C41.5613 60.4508 41.0417 61.0869 40.3398 61.0869Z" fill="#60B7FF"/>
<path d="M30.0002 47.1454C33.9713 47.1454 37.1906 43.9262 37.1906 39.955C37.1906 35.9839 33.9713 32.7646 30.0002 32.7646C26.0291 32.7646 22.8098 35.9839 22.8098 39.955C22.8098 43.9262 26.0291 47.1454 30.0002 47.1454Z" fill="#F6DCCD"/>
<path fill-rule="evenodd" clip-rule="evenodd" d="M30 32.7646C33.9712 32.7646 37.1904 35.9839 37.1904 39.955C37.1904 43.9261 33.9712 47.1454 30 47.1454C29.66 47.1454 29.3257 47.1211 28.9983 47.0756C32.4952 46.5881 35.1869 43.5861 35.1869 39.9551C35.1869 36.324 32.4952 33.3221 28.9983 32.8346C29.3257 32.7889 29.66 32.7646 30 32.7646Z" fill="#F1CBBC"/>
<path fill-rule="evenodd" clip-rule="evenodd" d="M29.1473 51.5078L30.0072 51.2595L30.8531 51.5078L32.2287 58.1766C32.2584 58.3206 32.2211 58.4578 32.1224 58.5669L30.3318 60.5465C30.2439 60.6436 30.1312 60.6938 30.0003 60.6938C29.8694 60.6938 29.7566 60.6438 29.6688 60.5465L27.8782 58.5669C27.7794 58.4578 27.7422 58.3208 27.7719 58.1766L29.1473 51.5078Z" fill="#685E68"/>
<path fill-rule="evenodd" clip-rule="evenodd" d="M29.5583 51.389L30.0071 51.2594L30.8529 51.5076L32.2286 58.1765C32.2582 58.3205 32.2209 58.4576 32.1223 58.5668L30.3317 60.5464C30.2438 60.6435 30.1311 60.6935 30.0002 60.6935C29.8692 60.6935 29.7566 60.6434 29.6687 60.5464L29.5552 60.4209L31.2322 58.5668C31.3308 58.4576 31.3682 58.3206 31.3384 58.1765L29.9628 51.5076L29.5583 51.389Z" fill="#544854"/>
<path fill-rule="evenodd" clip-rule="evenodd" d="M26.6278 48.7933C25.8885 48.9758 25.1724 49.2164 24.4844 49.5108L27.0107 54.0129C27.0847 54.1448 27.2078 54.2249 27.3584 54.2391C27.5089 54.2534 27.6449 54.1979 27.7424 54.0823L30 51.4051L26.6278 48.7933Z" fill="#685E68"/>
<path fill-rule="evenodd" clip-rule="evenodd" d="M24.8054 49.3782C24.6977 49.421 24.5908 49.4653 24.4844 49.5108L27.0107 54.0129C27.0847 54.1448 27.2078 54.2249 27.3584 54.2392C27.5089 54.2534 27.6449 54.1979 27.7424 54.0823L30 51.4052L29.6406 51.1268L27.7423 53.3778C27.6448 53.4934 27.5089 53.5489 27.3582 53.5347C27.2076 53.5204 27.0846 53.4403 27.0106 53.3084L24.8054 49.3782Z" fill="#544854"/>
<path fill-rule="evenodd" clip-rule="evenodd" d="M33.3724 48.7933C34.1116 48.9758 34.8278 49.2164 35.5156 49.5108L32.9894 54.0129C32.9154 54.1448 32.7924 54.2249 32.6418 54.2391C32.4913 54.2534 32.3553 54.198 32.2578 54.0824L30 51.4051L33.3724 48.7933Z" fill="#685E68"/>
<path fill-rule="evenodd" clip-rule="evenodd" d="M35.1819 49.373C35.2939 49.4175 35.4051 49.4634 35.5158 49.5108L32.9895 54.0129C32.9155 54.1448 32.7925 54.2249 32.6419 54.2392C32.4914 54.2534 32.3554 54.1979 32.2579 54.0824L30 51.4052L30.3737 51.1157L32.2578 53.3497C32.3553 53.4653 32.4911 53.5208 32.6418 53.5065C32.7923 53.4923 32.9154 53.4122 32.9894 53.2803L35.1819 49.373Z" fill="#544854"/>
<path fill-rule="evenodd" clip-rule="evenodd" d="M26.6323 48.7966L30.0001 51.4051L32.642 49.3589L33.3679 48.7966C32.2882 48.5345 31.1604 48.3955 30.0001 48.3955C29.5769 48.3955 29.1581 48.4141 28.7443 48.4504L28.7433 48.4503C28.0229 48.5134 27.3178 48.6301 26.6323 48.7966Z" fill="#F6DCCD"/>
</svg>
