<svg width="57" height="43" viewBox="0 0 57 43" fill="none" xmlns="http://www.w3.org/2000/svg">
<path fill-rule="evenodd" clip-rule="evenodd" d="M23.7005 9.4807V9.17689C23.7005 9.15193 23.7005 9.13117 23.743 9.1062C23.743 9.07269 23.7363 9.04093 23.7855 9.0313C23.7855 8.99276 23.7766 8.96495 23.828 8.93971C23.828 8.90619 23.857 8.83564 23.9129 8.83564C23.9129 8.81488 23.9129 8.80239 23.9554 8.7815C23.9554 8.76901 23.9554 8.76901 23.9554 8.75653C23.9978 8.74812 23.9978 8.73577 24.0403 8.72329C24.0403 8.7108 24.0403 8.7108 24.0403 8.7108L25.9092 7.32488C26.2914 7.04183 26.8437 7.12094 27.141 7.49557C27.3533 7.81187 27.3533 8.24878 27.0985 8.54431H32.4501C32.9173 8.54431 33.2997 8.91474 33.2997 9.38911C33.2997 9.8552 32.9175 10.2381 32.4501 10.2381H27.0985C27.3533 10.5294 27.3533 10.9581 27.141 11.2869C26.9158 11.5993 26.3458 11.7647 25.9092 11.4533L24.0403 10.0674C24.0403 10.0549 24.0403 10.0549 24.0403 10.0549C23.9978 10.0467 23.9978 10.0217 23.9554 10.0091C23.9554 10.0091 23.9554 10.0008 23.9554 9.98831C23.9129 9.97583 23.9129 9.95507 23.9129 9.9301C23.8704 9.9301 23.8704 9.9301 23.8704 9.9301C23.8704 9.88275 23.8279 9.90283 23.8279 9.83024C23.779 9.81585 23.7854 9.79034 23.7854 9.75113C23.7365 9.72236 23.7428 9.70025 23.7428 9.65954C23.6837 9.63064 23.7005 9.58152 23.7005 9.4807ZM23.7005 3.6583C23.7005 3.19628 24.0827 2.8093 24.5499 2.8093H29.9017C29.6469 2.51797 29.6044 2.07685 29.8592 1.76056C30.1565 1.39013 30.7087 1.30695 31.0909 1.58986L32.9598 2.97986V2.99234C33.0022 3.00062 33.0022 3.0131 33.0447 3.02558C33.0447 3.09302 33.0872 3.06046 33.0872 3.11297C33.1421 3.14513 33.1721 3.15815 33.1721 3.20456C33.1721 3.24269 33.2146 3.22423 33.2146 3.29615C33.2146 3.32885 33.2572 3.30483 33.2572 3.37526C33.2572 3.445 33.2997 3.3089 33.2997 3.56671V3.87052C33.2997 3.91407 33.2572 3.88015 33.2572 3.96211C33.2572 3.99481 33.2146 3.97066 33.2146 4.04121C33.2146 4.06835 33.1721 4.07419 33.1721 4.12032C33.1721 4.15356 33.1296 4.17853 33.0872 4.19943C33.0872 4.24054 33.0447 4.22521 33.0447 4.27853C33.0022 4.29943 33.0022 4.31178 32.9598 4.32426V4.33254L31.0909 5.72253C30.2495 6.31305 29.2262 5.2753 29.9017 4.5031H24.5499C24.0827 4.5031 23.7005 4.12019 23.7005 3.6583ZM52.1156 19.6355H39.7132C38.269 19.6355 37.0373 18.6908 36.6975 17.3798H55.1312C54.7914 18.6907 53.5596 19.6355 52.1156 19.6355ZM38.8212 9.5347H45.0649V15.6317C41.7944 15.249 39.2034 12.7185 38.8212 9.5347ZM45.9144 1.69394C47.5709 1.69394 49.0999 2.25989 50.3317 3.18393L45.5745 7.84511H38.8212C39.2459 4.39075 42.2616 1.69394 45.9144 1.69394ZM46.7638 15.6319C50.3316 15.2115 53.0499 12.2691 53.0499 8.68991C53.0499 7.0668 52.4978 5.57694 51.5208 4.37827L46.7637 9.03958V15.6319H46.7638ZM32.5775 24.4341C32.7474 25.021 32.7474 25.6536 32.5775 26.2487C32.535 26.5233 32.62 26.8064 32.7899 27.0061L33.5545 27.8301L33.2146 28.3836L32.9173 28.317L32.1103 28.1463C31.3394 27.9829 31.2621 28.8064 29.7318 29.2741C29.477 29.3533 29.2645 29.5572 29.1797 29.8151L28.8398 30.8806H28.1602C28.1602 30.8224 28.1177 30.7515 28.1177 30.7099C28.0751 30.6641 28.0751 30.6183 28.0751 30.5726L27.8203 29.8151C27.7355 29.5571 27.523 29.3531 27.2682 29.2741C25.7392 28.8068 25.6586 27.9821 24.8897 28.1463L23.7854 28.3835L23.4455 27.83L24.2101 27.006C24.38 26.8062 24.4649 26.5232 24.38 26.2486C24.2526 25.6534 24.2526 25.0208 24.38 24.434C24.4649 24.1634 24.38 23.8805 24.2101 23.6766L23.4455 22.8525L23.7854 22.3031L24.0827 22.3698L24.8897 22.5238C25.6791 22.7083 25.7236 21.8805 27.2682 21.4084C27.523 21.3293 27.7355 21.1296 27.8203 20.8674L28.1602 19.8062H28.8398C28.8398 19.8644 28.8398 19.9185 28.8823 19.9769C28.8823 20.0226 28.8823 20.0643 28.9249 20.1101L29.1797 20.8676C29.2645 21.1297 29.477 21.3294 29.7318 21.4085C31.273 21.8797 31.3263 22.7107 32.1103 22.5239L33.2146 22.3034L33.5545 22.8528L32.7899 23.6769C32.62 23.8805 32.535 24.1636 32.5775 24.4341ZM22.8085 37.6853H34.1915L30.8785 30.6643C30.7936 30.6852 30.7511 30.71 30.6662 30.7434L30.4114 31.5092C30.199 32.1418 29.6044 32.5704 28.9249 32.5704H28.0329C26.8862 32.5704 26.5889 31.5757 26.4613 31.2053C26.4613 31.172 26.4188 31.1386 26.4188 31.0929L26.2914 30.7434C26.2489 30.7101 26.2065 30.6852 26.1215 30.6643L22.8085 37.6853ZM39.7132 39.7954V40.89C39.7132 41.1147 39.5433 41.3062 39.2885 41.3062H17.6692C17.4567 41.3062 17.2445 41.1147 17.2445 40.89V39.7954C17.2445 39.5665 17.4569 39.3751 17.6692 39.3751H39.2885C39.5433 39.3751 39.7132 39.5665 39.7132 39.7954ZM1.82639 17.3798H20.3026C19.9204 18.6908 18.6887 19.6355 17.2445 19.6355H4.88442C3.44036 19.6355 2.20859 18.6907 1.82639 17.3798ZM5.13936 7.67441H7.94258V15.6901H5.13936V7.67441ZM12.4873 4.68207V15.6901H9.68408V4.68207H12.4873ZM17.032 1.69394V15.6902H14.1863V1.69394H17.032ZM56.1506 15.6901H51.1811C53.3474 14.1086 54.7914 11.5574 54.7914 8.68991C54.7914 3.90376 50.7988 0 45.9144 0C41.0298 0 37.0373 3.90376 37.0373 8.68991C37.0373 11.5574 38.4815 14.1086 40.6476 15.6901H35.6782C35.2109 15.6901 34.8287 16.073 34.8287 16.5349C34.8287 19.186 37.0373 21.3293 39.7133 21.3293H45.0649V23.1688C45.0649 23.9013 44.4703 24.4881 43.7058 24.4881H34.3615L34.9136 23.893C35.3809 23.3935 35.4234 22.6861 35.1261 22.1076L34.6588 21.3502C34.319 20.7758 33.6395 20.4845 33.0024 20.6178L32.1953 20.7885C31.7281 20.4389 31.2183 20.1559 30.6662 19.9437L30.5813 19.5816C30.5388 19.5484 30.5388 19.515 30.5388 19.4776C30.4114 19.1071 30.1141 18.1124 28.9249 18.1124H28.0329C27.3533 18.1124 26.7588 18.541 26.5463 19.1736L26.2915 19.9435C25.7818 20.1557 25.2722 20.4388 24.805 20.7883C24.0161 20.6047 22.9581 20.3057 22.3414 21.3502L21.8742 22.1076C21.5344 22.6861 21.6194 23.3937 22.0866 23.893L22.6388 24.4881H13.2945C12.53 24.4881 11.9353 23.9013 11.9353 23.1688V21.3293H17.2446C19.9629 21.3293 22.1715 19.186 22.1715 16.5349C22.1715 16.073 21.7892 15.6901 21.2796 15.6901H18.7312V1.63559C18.7312 0.732446 18.0091 0 17.0747 0H14.1439C13.2095 0 12.4874 0.732446 12.4874 1.63559V2.99234H9.59906C8.70712 2.99234 7.94258 3.72479 7.94258 4.62793V5.98048H5.05433C4.16239 5.98048 3.39785 6.71713 3.39785 7.60779V15.6901H0.849427C0.382201 15.6901 0 16.073 0 16.5349C0 19.186 2.16622 21.3293 4.88455 21.3293H10.1938V23.1688C10.1938 24.8294 11.5955 26.1819 13.2944 26.1819H22.6386L22.0865 26.7938C21.6193 27.289 21.5344 28.0007 21.8741 28.5751L22.3413 29.3325C22.6811 29.9069 23.3183 30.2023 23.9978 30.0649L24.5924 29.9401L20.8972 37.6852H17.6692C16.4799 37.6852 15.5455 38.63 15.5455 39.7953V40.8899C15.5455 42.051 16.4799 43 17.6692 43H39.2885C40.4777 43 41.4547 42.0511 41.4547 40.8899V39.7953C41.4547 38.63 40.4778 37.6852 39.2885 37.6852H36.0604L32.4076 29.9401C33.0191 30.0999 34.0631 30.3432 34.6587 29.3325L35.1259 28.5751C35.4232 28.0007 35.3807 27.289 34.9135 26.7938L34.3614 26.1819H43.7056C45.4046 26.1819 46.7638 24.8294 46.7638 23.1688V21.3293H52.1154C54.7913 21.3293 57 19.186 57 16.5349C57 16.073 56.6178 15.6901 56.1506 15.6901ZM28.5 26.2403C29.0097 26.2403 29.4345 25.8449 29.4345 25.3371C29.4345 24.8419 29.0097 24.434 28.5 24.434C27.9903 24.434 27.5655 24.8419 27.5655 25.3371C27.5655 25.8449 27.9903 26.2403 28.5 26.2403ZM28.5 22.7402C27.0559 22.7402 25.8667 23.9138 25.8667 25.3371C25.8667 26.7688 27.0559 27.9341 28.5 27.9341C29.9442 27.9341 31.1334 26.7688 31.1334 25.3371C31.1334 23.9139 29.9441 22.7402 28.5 22.7402Z" fill="white"/>
</svg>
