<svg width="48" height="48" viewBox="0 0 48 48" fill="none" xmlns="http://www.w3.org/2000/svg">
<path d="M13.8304 20.5046H44.7195C45.6255 20.5046 46.4426 20.874 47.0362 21.4673V21.4729C47.6295 22.0665 47.9992 22.8836 47.9992 23.784V44.7206C47.9992 45.6206 47.6295 46.4434 47.0362 47.0366C46.4426 47.6306 45.6255 47.9996 44.7195 47.9996H13.8304C12.93 47.9996 12.1072 47.6306 11.514 47.0366C10.9204 46.4434 10.551 45.6259 10.551 44.7206V23.784C10.551 22.8836 10.9204 22.0609 11.514 21.4673C12.1076 20.874 12.93 20.5046 13.8304 20.5046ZM44.7195 22.0039H13.8304C13.341 22.0039 12.8985 22.2068 12.576 22.5293C12.2531 22.8521 12.0502 23.2946 12.0502 23.784V44.7206C12.0502 45.21 12.2531 45.6574 12.576 45.9803C12.8981 46.3024 13.341 46.5004 13.8304 46.5004H44.7195C45.2089 46.5004 45.6562 46.3028 45.9791 45.9803C46.3016 45.6574 46.5 45.2096 46.5 44.7206V23.784C46.5 23.2946 46.302 22.8473 45.9791 22.5244V22.5296C45.6562 22.2071 45.2089 22.0039 44.7195 22.0039Z" fill="white"/>
<path d="M23.013 14.253H35.5425C36.2558 14.253 36.9113 14.5444 37.38 15.018C37.8484 15.4916 38.1454 16.1426 38.1454 16.8555V21.2539V22.0035H37.3954H34.2308H33.4815V21.2539V18.8182H25.0744V21.2542V22.0039H24.3244H21.1598H20.4101V21.2542V16.8555C20.4101 16.1426 20.7015 15.4864 21.1699 15.018C21.6435 14.5444 22.2949 14.253 23.013 14.253ZM35.5421 15.7522H23.013C22.7108 15.7522 22.4351 15.8767 22.2319 16.08C22.0343 16.278 21.9098 16.5536 21.9098 16.8555V20.5042H23.5751V18.0682V17.319H24.3248H34.2308H34.9808V18.0682V20.5046H36.6461V16.8559C36.6461 16.5536 36.5213 16.278 36.3236 16.0804H36.318C36.12 15.8771 35.8444 15.7522 35.5421 15.7522Z" fill="white"/>
<path d="M8.2815 40.6864C8.69287 40.6864 9.03113 41.019 9.03113 41.4356C9.03113 41.8466 8.69287 42.1849 8.2815 42.1849H2.24888C1.63463 42.1849 1.0725 41.9299 0.661125 41.5241V41.5189C0.255 41.1128 0 40.551 0 39.9311V2.24926C0 1.63501 0.255 1.07289 0.661125 0.661888C1.06687 0.255763 1.629 0.000762939 2.24888 0.000762939H23.3355C23.6584 0.000762939 23.9602 0.0633879 24.2419 0.188263C24.5179 0.313138 24.7676 0.495013 24.9915 0.729388L30.6499 6.78339C30.6653 6.79914 30.6758 6.81451 30.6915 6.83026C30.873 7.03314 31.0035 7.25739 31.0973 7.49139C31.191 7.74676 31.2431 8.01714 31.2431 8.30364V11.9786C31.2431 12.3949 30.9049 12.7283 30.4935 12.7283C30.0773 12.7283 29.7386 12.3949 29.7386 11.9786V8.30364C29.7386 8.19939 29.7285 8.10601 29.697 8.02239C29.6659 7.95489 29.6295 7.89226 29.5826 7.82964C29.5721 7.81951 29.5613 7.81426 29.5511 7.80376L23.898 1.74976C23.8196 1.66651 23.7315 1.60389 23.6378 1.55701C23.5496 1.52064 23.4506 1.50001 23.3359 1.50001H2.24888C2.046 1.50001 1.8585 1.58326 1.72312 1.72389L1.71788 1.71864C1.5825 1.85364 1.49925 2.04639 1.49925 2.24926V39.9311C1.49925 40.1393 1.5825 40.3268 1.71788 40.4621L1.72312 40.4674C1.8585 40.5979 2.04562 40.6864 2.24888 40.6864H8.2815Z" fill="white"/>
<path d="M26.5579 34.1692L13.6954 31.7272C12.8261 31.566 12.024 31.1861 11.4469 30.6082C10.8945 30.0566 10.551 29.3332 10.551 28.4636H12.0502C12.0502 28.9061 12.2276 29.2706 12.5085 29.5519C12.8677 29.9055 13.3935 30.1504 13.9714 30.2595L26.8339 32.7007L26.5579 34.1692ZM47.9989 28.4636C47.9989 29.3329 47.6554 30.0514 47.1034 30.603V30.6082C46.5255 31.1861 45.7241 31.5664 44.8601 31.7272L31.9972 34.1895L31.7164 32.7217L44.5789 30.2595C45.162 30.1451 45.6877 29.9059 46.0466 29.5519C46.3279 29.2706 46.4996 28.9057 46.4996 28.4636H47.9989Z" fill="white"/>
<path d="M19.1036 6.69974C19.5199 6.69974 19.8532 7.03311 19.8532 7.44936C19.8532 7.86074 19.5199 8.19899 19.1036 8.19899H8.64112C8.2245 8.19899 7.89112 7.86074 7.89112 7.44936C7.89112 7.03311 8.2245 6.69974 8.64112 6.69974H19.1036ZM5.06962 6.69974C5.48625 6.69974 5.82487 7.03311 5.82487 7.44936C5.82487 7.86074 5.48662 8.19899 5.06962 8.19899H4.50787C4.09612 8.19899 3.75787 7.86074 3.75787 7.44936C3.75787 7.03311 4.09612 6.69974 4.50787 6.69974H5.06962Z" fill="white"/>
<path d="M14.1739 13.5034C14.5852 13.5034 14.9235 13.8413 14.9235 14.253C14.9235 14.6693 14.5852 15.0023 14.1739 15.0023H8.64075C8.2245 15.0023 7.89112 14.6693 7.89112 14.253C7.89112 13.8416 8.2245 13.5034 8.64075 13.5034H14.1739ZM5.07 13.5034C5.48625 13.5034 5.82487 13.8413 5.82487 14.253C5.82487 14.6693 5.48662 15.0023 5.07 15.0023H4.50787C4.0965 15.0023 3.75787 14.6693 3.75787 14.253C3.75787 13.8416 4.09612 13.5034 4.50787 13.5034H5.07Z" fill="white"/>
<path d="M19.1036 10.104C19.5199 10.104 19.8532 10.4374 19.8532 10.8536C19.8532 11.2646 19.5199 11.6033 19.1036 11.6033H8.64112C8.2245 11.6033 7.89112 11.265 7.89112 10.8536C7.89112 10.4374 8.2245 10.104 8.64112 10.104H19.1036ZM5.06962 10.104C5.48625 10.104 5.82487 10.4374 5.82487 10.8536C5.82487 11.2646 5.48662 11.6033 5.06962 11.6033H4.50787C4.09612 11.6033 3.75787 11.265 3.75787 10.8536C3.75787 10.4374 4.09612 10.104 4.50787 10.104H5.06962Z" fill="white"/>
<path d="M24.1061 0.276388L30.93 7.68376C31.206 7.98564 31.1906 8.45926 30.8831 8.74014C30.7425 8.87026 30.561 8.93814 30.3784 8.93814H25.6781C24.8768 8.93814 24.153 8.61001 23.6273 8.08464C23.6119 8.06889 23.5958 8.05351 23.5804 8.03776C23.0805 7.51689 22.7734 6.80926 22.7734 6.03339V0.750388C22.7734 0.339013 23.1068 0.000762939 23.5234 0.000762939C23.757 0.000762939 23.9655 0.109888 24.1061 0.276388ZM28.6714 7.43926L24.2726 2.67076V6.03376C24.2726 6.40839 24.4185 6.74664 24.6529 6.99639C24.663 7.00689 24.6739 7.01739 24.6844 7.02789C24.9394 7.28289 25.293 7.43889 25.6781 7.43889L28.6714 7.43926Z" fill="white"/>
<path d="M34.0849 4.03988C34.0016 4.44562 33.6064 4.70587 33.2003 4.61775C32.7941 4.53412 32.5339 4.13888 32.6171 3.73763L32.9036 2.37375L33.2783 0.598875C33.351 0.24525 33.6634 0 34.0121 0H35.3239H36.6356C37.0155 0 37.3283 0.28125 37.38 0.650625L37.9316 3.27413C38.3168 3.38363 38.6918 3.51375 39.0559 3.6645C39.4256 3.81563 39.7845 3.99262 40.128 4.18538L42.4238 2.68612C42.7204 2.49337 43.1108 2.54025 43.3553 2.78513H43.3609L44.2875 3.71175C44.2976 3.7275 44.3134 3.738 44.3243 3.75338L45.2141 4.64362C45.474 4.89862 45.5006 5.30475 45.2978 5.59612L43.8139 7.8705C44.0115 8.21438 44.1836 8.57325 44.3396 8.943C44.4855 9.30713 44.6156 9.68213 44.7248 10.0673L47.4004 10.6346C47.7701 10.7074 48.0199 11.0408 47.9993 11.4049V12.6757V13.9875C47.9993 14.3674 47.7184 14.685 47.3486 14.7319L44.7251 15.2835C44.616 15.6739 44.4855 16.0489 44.34 16.4077C44.1214 16.9335 43.8611 17.433 43.5645 17.8969C43.3463 18.2505 42.8828 18.3547 42.5288 18.1309C42.18 17.907 42.0761 17.4439 42.2996 17.0947C42.555 16.6943 42.7736 16.2724 42.9559 15.8355C43.1329 15.4084 43.2731 14.9711 43.3774 14.5238C43.4243 14.2271 43.653 13.9822 43.9605 13.9147L46.5 13.3837V12.6757H46.5053V11.973L43.9598 11.4368C43.6841 11.3798 43.4498 11.166 43.3819 10.8694C43.2829 10.4062 43.1374 9.9585 42.9551 9.51638C42.7729 9.07913 42.5543 8.65725 42.2989 8.25675C42.1481 8.01713 42.1429 7.70475 42.3041 7.44975L43.7258 5.274L43.2671 4.81087C43.2518 4.80075 43.2416 4.78988 43.2255 4.77413L42.726 4.27462L40.5968 5.66437C40.3523 5.8515 40.0136 5.8725 39.7436 5.70075C39.3428 5.44575 38.9213 5.22713 38.484 5.04488C38.0569 4.86788 37.6148 4.72725 37.167 4.62337C36.8756 4.5765 36.6255 4.35262 36.5633 4.04025L36.0263 1.49962H35.3239H34.6155L34.371 2.676L34.0849 4.03988ZM35.3239 8.0325C34.9073 8.0325 34.5739 7.69913 34.5739 7.28288C34.5739 6.86663 34.9073 6.53325 35.3239 6.53325C37.0204 6.53325 38.556 7.22062 39.6701 8.33438C40.779 9.44325 41.466 10.9789 41.466 12.6757C41.466 13.1235 41.4191 13.566 41.3254 13.9875C41.2316 14.4191 41.091 14.8361 40.9095 15.2366C40.7374 15.6116 40.2949 15.7781 39.915 15.6064C39.5404 15.4342 39.3788 14.9917 39.5509 14.6171C39.6859 14.3258 39.7901 14.0081 39.8629 13.6747C39.9308 13.3523 39.9671 13.0189 39.9671 12.6754C39.9671 11.3947 39.4466 10.2338 38.6085 9.39075C37.7651 8.55338 36.6041 8.0325 35.3239 8.0325Z" fill="white"/>
<path d="M26.8028 28.485H31.7528C32.1435 28.485 32.4971 28.6462 32.7525 28.9009L32.7578 28.9061C33.0131 29.1619 33.174 29.5207 33.174 29.9111V35.3977C33.174 36.4699 32.7371 37.4434 32.0288 38.151C31.3264 38.8594 30.3476 39.2966 29.2751 39.2966C28.2026 39.2966 27.2291 38.8594 26.5215 38.151C25.8184 37.4434 25.3759 36.4702 25.3759 35.3977V29.9111C25.3759 29.5207 25.5375 29.1611 25.7978 28.9061V28.9009C26.058 28.6462 26.4124 28.485 26.8028 28.485ZM31.6751 29.9842H26.8808V35.3977C26.8808 36.0532 27.1463 36.6574 27.5835 37.0897C28.0208 37.527 28.6196 37.7974 29.2751 37.7974C29.9366 37.7974 30.5348 37.527 30.972 37.0897C31.404 36.6577 31.6751 36.0532 31.6751 35.3977V29.9842Z" fill="white"/>
<path d="M29.2747 36.048C29.6887 36.048 30.0244 35.7124 30.0244 35.2984C30.0244 34.8844 29.6887 34.5488 29.2747 34.5488C28.8607 34.5488 28.5251 34.8844 28.5251 35.2984C28.5251 35.7124 28.8607 36.048 29.2747 36.048Z" fill="white"/>
</svg>
