<svg width="64" height="64" viewBox="0 0 64 64" fill="none" xmlns="http://www.w3.org/2000/svg">
<g clip-path="url(#clip0_2415_27)">
<path d="M14.6389 30.8909H7.01064C6.77127 30.8909 6.57727 31.0849 6.57727 31.3243V36.4002C6.57727 36.6395 6.77127 36.8335 7.01064 36.8335H14.6389C14.8783 36.8335 15.0723 36.6395 15.0723 36.4002V31.3243C15.0723 31.0849 14.8783 30.8909 14.6389 30.8909Z" fill="#55A2F0"/>
<path d="M14.6389 30.8909H10.8271V36.8335H14.6389C14.8783 36.8335 15.0723 36.6395 15.0723 36.4002V31.3243C15.0723 31.0849 14.8783 30.8909 14.6389 30.8909Z" fill="#4B9EE2"/>
<path d="M50.3881 7.29224C49.8631 7.29224 49.4376 7.71774 49.4376 8.24273V17.8171C49.4376 18.3421 49.8631 18.7676 50.3881 18.7676C50.9131 18.7676 51.3386 18.3421 51.3386 17.8171V8.24273C51.3386 7.71786 50.9131 7.29224 50.3881 7.29224Z" fill="#2D5872"/>
<path d="M51.9877 21.4337H48.7887C48.2368 21.4337 47.7894 20.9863 47.7894 20.4345V16.9387C47.7894 16.3869 48.2368 15.9395 48.7887 15.9395H51.9877C52.5395 15.9395 52.9869 16.3869 52.9869 16.9387V20.4345C52.9869 20.9863 52.5395 21.4337 51.9877 21.4337Z" fill="#FF4C4C"/>
<path d="M56.502 31.5682H44.2743C43.7485 31.5682 43.3223 31.1419 43.3223 30.6163V21.3871C43.3223 20.8613 43.7485 20.4352 44.2743 20.4352H56.502C57.0277 20.4352 57.4539 20.8615 57.4539 21.3871V30.6163C57.4539 31.1419 57.0277 31.5682 56.502 31.5682Z" fill="#F33A3A"/>
<path d="M60.4184 63.9999H38.9615V24.9911H59.8915C60.1825 24.9911 60.4184 25.227 60.4184 25.518V63.9999Z" fill="#FF4C4C"/>
<path d="M59.8915 24.9911H54.0634C54.3544 24.9911 54.5902 25.227 54.5902 25.518V63.9999H60.4183V25.518C60.4183 25.227 60.1825 24.9911 59.8915 24.9911Z" fill="#F33A3A"/>
<path d="M56.4056 34.2894H44.1104C43.6751 34.2894 43.3224 33.9365 43.3224 33.5014V31.6791C43.3224 31.2438 43.6753 30.8911 44.1104 30.8911H56.4056C56.8409 30.8911 57.1936 31.2439 57.1936 31.6791V33.5014C57.1936 33.9365 56.8409 34.2894 56.4056 34.2894Z" fill="#E1EFFB"/>
<path d="M56.4056 42.0809H44.1104C43.6751 42.0809 43.3224 41.728 43.3224 41.2929V39.4706C43.3224 39.0353 43.6753 38.6826 44.1104 38.6826H56.4056C56.8409 38.6826 57.1936 39.0354 57.1936 39.4706V41.2929C57.1936 41.728 56.8409 42.0809 56.4056 42.0809Z" fill="#E1EFFB"/>
<path d="M56.4056 49.8724H44.1104C43.6751 49.8724 43.3224 49.5196 43.3224 49.0844V47.2621C43.3224 46.8268 43.6753 46.4741 44.1104 46.4741H56.4056C56.8409 46.4741 57.1936 46.8269 57.1936 47.2621V49.0844C57.1936 49.5196 56.8409 49.8724 56.4056 49.8724Z" fill="#E1EFFB"/>
<path d="M56.4055 57.6639H44.1103C43.675 57.6639 43.3223 57.311 43.3223 56.8759V55.0535C43.3223 54.6183 43.6751 54.2655 44.1103 54.2655H56.4055C56.8407 54.2655 57.1935 54.6184 57.1935 55.0535V56.8759C57.1935 57.3111 56.8407 57.6639 56.4055 57.6639Z" fill="#E1EFFB"/>
<path d="M44.5397 63.9999H19.7623C19.366 63.9999 19.0449 63.6787 19.0449 63.2825V1.86499C19.0449 1.46874 19.366 1.14761 19.7623 1.14761H44.5397C44.936 1.14761 45.2571 1.46874 45.2571 1.86499V63.2825C45.2571 63.6787 44.936 63.9999 44.5397 63.9999Z" fill="#FFB125"/>
<path d="M44.5399 1.14761H38.7118C39.108 1.14761 39.4292 1.46874 39.4292 1.86499V63.2825C39.4292 63.6787 39.108 63.9999 38.7118 63.9999H44.5399C44.9362 63.9999 45.2573 63.6787 45.2573 63.2825V1.86499C45.2573 1.46874 44.936 1.14761 44.5399 1.14761Z" fill="#FF901D"/>
<path d="M46.3834 0H17.6165C17.4199 0 17.2604 0.159375 17.2604 0.356124V2.77062C17.2604 2.96724 17.4198 3.12674 17.6165 3.12674H46.3834C46.5801 3.12674 46.7396 2.96737 46.7396 2.77062V0.356124C46.7396 0.159375 46.5801 0 46.3834 0Z" fill="#FF901D"/>
<path d="M26.2331 11.7375H22.7472C22.5017 11.7375 22.3026 11.5385 22.3026 11.2928V7.0366C22.3026 6.7911 22.5016 6.59198 22.7472 6.59198H26.2331C26.4786 6.59198 26.6777 6.79098 26.6777 7.0366V11.293C26.6777 11.5385 26.4786 11.7375 26.2331 11.7375Z" fill="#E1EFFB"/>
<path d="M33.8941 11.7375H30.4082C30.1627 11.7375 29.9636 11.5385 29.9636 11.2928V7.0366C29.9636 6.7911 30.1626 6.59198 30.4082 6.59198H33.8941C34.1396 6.59198 34.3387 6.79098 34.3387 7.0366V11.293C34.3386 11.5385 34.1396 11.7375 33.8941 11.7375Z" fill="#E1EFFB"/>
<path d="M41.555 11.7375H38.0691C37.8236 11.7375 37.6245 11.5385 37.6245 11.2928V7.0366C37.6245 6.7911 37.8235 6.59198 38.0691 6.59198H41.555C41.8005 6.59198 41.9996 6.79098 41.9996 7.0366V11.293C41.9996 11.5385 41.8006 11.7375 41.555 11.7375Z" fill="#E1EFFB"/>
<path d="M26.2331 23.2191H22.7472C22.5017 23.2191 22.3026 23.0201 22.3026 22.7744V18.5181C22.3026 18.2726 22.5016 18.0735 22.7472 18.0735H26.2331C26.4786 18.0735 26.6777 18.2725 26.6777 18.5181V22.7744C26.6777 23.0201 26.4786 23.2191 26.2331 23.2191Z" fill="#E1EFFB"/>
<path d="M33.8941 23.2191H30.4082C30.1627 23.2191 29.9636 23.0201 29.9636 22.7744V18.5181C29.9636 18.2726 30.1626 18.0735 30.4082 18.0735H33.8941C34.1396 18.0735 34.3387 18.2725 34.3387 18.5181V22.7744C34.3386 23.0201 34.1396 23.2191 33.8941 23.2191Z" fill="#E1EFFB"/>
<path d="M41.555 23.2191H38.0691C37.8236 23.2191 37.6245 23.0201 37.6245 22.7744V18.5181C37.6245 18.2726 37.8235 18.0735 38.0691 18.0735H41.555C41.8005 18.0735 41.9996 18.2725 41.9996 18.5181V22.7744C41.9996 23.0201 41.8006 23.2191 41.555 23.2191Z" fill="#E1EFFB"/>
<path d="M26.2331 34.7007H22.7472C22.5017 34.7007 22.3026 34.5017 22.3026 34.256V29.9997C22.3026 29.7542 22.5016 29.5551 22.7472 29.5551H26.2331C26.4786 29.5551 26.6777 29.7541 26.6777 29.9997V34.256C26.6777 34.5017 26.4786 34.7007 26.2331 34.7007Z" fill="#E1EFFB"/>
<path d="M33.8941 34.7007H30.4082C30.1627 34.7007 29.9636 34.5017 29.9636 34.256V29.9997C29.9636 29.7542 30.1626 29.5551 30.4082 29.5551H33.8941C34.1396 29.5551 34.3387 29.7541 34.3387 29.9997V34.256C34.3386 34.5017 34.1396 34.7007 33.8941 34.7007Z" fill="#E1EFFB"/>
<path d="M41.555 34.7007H38.0691C37.8236 34.7007 37.6245 34.5017 37.6245 34.256V29.9997C37.6245 29.7542 37.8235 29.5551 38.0691 29.5551H41.555C41.8005 29.5551 41.9996 29.7541 41.9996 29.9997V34.256C41.9996 34.5017 41.8006 34.7007 41.555 34.7007Z" fill="#E1EFFB"/>
<path d="M33.8941 46.1823H30.4082C30.1627 46.1823 29.9636 45.9833 29.9636 45.7377V41.4813C29.9636 41.2358 30.1626 41.0367 30.4082 41.0367H33.8941C34.1396 41.0367 34.3387 41.2357 34.3387 41.4813V45.7377C34.3386 45.9833 34.1396 46.1823 33.8941 46.1823Z" fill="#E1EFFB"/>
<path d="M41.555 46.1823H38.0691C37.8236 46.1823 37.6245 45.9833 37.6245 45.7377V41.4813C37.6245 41.2358 37.8235 41.0367 38.0691 41.0367H41.555C41.8005 41.0367 41.9996 41.2357 41.9996 41.4813V45.7377C41.9996 45.9833 41.8006 46.1823 41.555 46.1823Z" fill="#E1EFFB"/>
<path d="M33.8941 57.6639H30.4082C30.1627 57.6639 29.9636 57.4649 29.9636 57.2192V52.9629C29.9636 52.7174 30.1626 52.5182 30.4082 52.5182H33.8941C34.1396 52.5182 34.3387 52.7172 34.3387 52.9629V57.2192C34.3386 57.4649 34.1396 57.6639 33.8941 57.6639Z" fill="#E1EFFB"/>
<path d="M41.555 57.6639H38.0691C37.8236 57.6639 37.6245 57.4649 37.6245 57.2192V52.9629C37.6245 52.7174 37.8235 52.5182 38.0691 52.5182H41.555C41.8005 52.5182 41.9996 52.7172 41.9996 52.9629V57.2192C41.9996 57.4649 41.8006 57.6639 41.555 57.6639Z" fill="#E1EFFB"/>
<path d="M30.491 63.9999H4.12942C3.82679 63.9999 3.58154 63.7546 3.58154 63.452V35.5229C3.58154 35.2203 3.82679 34.9751 4.12942 34.9751H30.491C30.7936 34.9751 31.0389 35.2203 31.0389 35.5229V63.4521C31.0389 63.7546 30.7936 63.9999 30.491 63.9999Z" fill="#61AFF6"/>
<path d="M30.491 34.9751H24.558C24.8606 34.9751 25.1059 35.2203 25.1059 35.5229V63.4521C25.1059 63.7548 24.8606 64 24.558 64H30.491C30.7935 64 31.0388 63.7548 31.0388 63.4521V35.5229C31.0388 35.2203 30.7936 34.9751 30.491 34.9751Z" fill="#55A2F0"/>
<path d="M10.8271 42.8967H7.37703C7.07328 42.8967 6.82703 42.6504 6.82703 42.3467V40.1493C6.82703 39.8456 7.07328 39.5993 7.37703 39.5993H10.8271C11.1309 39.5993 11.3771 39.8456 11.3771 40.1493V42.3467C11.3771 42.6504 11.1309 42.8967 10.8271 42.8967Z" fill="#E1EFFB"/>
<path d="M18.8586 42.8967H15.4085C15.1048 42.8967 14.8585 42.6504 14.8585 42.3467V40.1493C14.8585 39.8456 15.1048 39.5993 15.4085 39.5993H18.8586C19.1624 39.5993 19.4086 39.8456 19.4086 40.1493V42.3467C19.4086 42.6504 19.1624 42.8967 18.8586 42.8967Z" fill="#E1EFFB"/>
<path d="M26.8901 42.8967H23.44C23.1363 42.8967 22.89 42.6504 22.89 42.3467V40.1493C22.89 39.8456 23.1363 39.5993 23.44 39.5993H26.8901C27.1939 39.5993 27.4401 39.8456 27.4401 40.1493V42.3467C27.4401 42.6504 27.1939 42.8967 26.8901 42.8967Z" fill="#E1EFFB"/>
<path d="M10.8271 50.609H7.37703C7.07328 50.609 6.82703 50.3628 6.82703 50.059V47.8617C6.82703 47.5579 7.07328 47.3117 7.37703 47.3117H10.8271C11.1309 47.3117 11.3771 47.5579 11.3771 47.8617V50.059C11.3771 50.3628 11.1309 50.609 10.8271 50.609Z" fill="#E1EFFB"/>
<path d="M18.8586 50.609H15.4085C15.1048 50.609 14.8585 50.3628 14.8585 50.059V47.8617C14.8585 47.5579 15.1048 47.3117 15.4085 47.3117H18.8586C19.1624 47.3117 19.4086 47.5579 19.4086 47.8617V50.059C19.4086 50.3628 19.1624 50.609 18.8586 50.609Z" fill="#E1EFFB"/>
<path d="M26.8901 50.609H23.44C23.1363 50.609 22.89 50.3628 22.89 50.059V47.8617C22.89 47.5579 23.1363 47.3117 23.44 47.3117H26.8901C27.1939 47.3117 27.4401 47.5579 27.4401 47.8617V50.059C27.4401 50.3628 27.1939 50.609 26.8901 50.609Z" fill="#E1EFFB"/>
<path d="M10.8271 58.3214H7.37703C7.07328 58.3214 6.82703 58.0752 6.82703 57.7714V55.574C6.82703 55.2703 7.07328 55.024 7.37703 55.024H10.8271C11.1309 55.024 11.3771 55.2703 11.3771 55.574V57.7714C11.3771 58.0752 11.1309 58.3214 10.8271 58.3214Z" fill="#E1EFFB"/>
<path d="M18.8586 58.3214H15.4085C15.1048 58.3214 14.8585 58.0752 14.8585 57.7714V55.574C14.8585 55.2703 15.1048 55.024 15.4085 55.024H18.8586C19.1624 55.024 19.4086 55.2703 19.4086 55.574V57.7714C19.4086 58.0752 19.1624 58.3214 18.8586 58.3214Z" fill="#E1EFFB"/>
<path d="M26.8901 58.3214H23.44C23.1363 58.3214 22.89 58.0752 22.89 57.7714V55.574C22.89 55.2703 23.1363 55.024 23.44 55.024H26.8901C27.1939 55.024 27.4401 55.2703 27.4401 55.574V57.7714C27.4401 58.0752 27.1939 58.3214 26.8901 58.3214Z" fill="#E1EFFB"/>
<path d="M61.2938 61.0637H2.70616C1.89529 61.0637 1.23804 61.7209 1.23804 62.5318C1.23804 63.3427 1.89529 63.9999 2.70616 63.9999H61.2939C62.1048 63.9999 62.762 63.3427 62.762 62.5318C62.7619 61.721 62.1047 61.0637 61.2938 61.0637Z" fill="#2D5872"/>
<path d="M62.7527 62.3706C62.7515 62.3608 62.7495 62.3513 62.7483 62.3416C62.7425 62.2971 62.7352 62.2531 62.7254 62.2098C62.724 62.2037 62.7222 62.1977 62.7207 62.1916C62.7094 62.1442 62.6959 62.0979 62.6802 62.0522C62.6795 62.0505 62.6789 62.0487 62.6783 62.047C62.661 61.9979 62.6413 61.95 62.6192 61.9033V61.9032C62.3835 61.4072 61.8794 61.0635 61.2938 61.0635H56.9338V61.4374C56.9338 62.1583 56.3493 62.743 55.6282 62.743H2.70616C2.12054 62.743 1.61641 62.3992 1.38079 61.9032C1.29016 62.094 1.23804 62.3065 1.23804 62.5316C1.23804 63.3423 1.89529 63.9997 2.70616 63.9997H56.9338H61.2938C62.1047 63.9997 62.7619 63.3425 62.7619 62.5316C62.7619 62.4772 62.7584 62.4235 62.7527 62.3706Z" fill="#1D4859"/>
</g>
<defs>
<clipPath id="clip0_2415_27">
<rect width="64" height="64" fill="white"/>
</clipPath>
</defs>
</svg>
