<svg id="Layer_2_00000021837925454425099630000004728489889640364695_" enable-background="new 0 0 512 512" height="512" viewBox="0 0 512 512" width="512" xmlns="http://www.w3.org/2000/svg" xmlns:xlink="http://www.w3.org/1999/xlink"><linearGradient id="SVGID_1_" gradientTransform="matrix(1 0 0 -1 0 514.65)" gradientUnits="userSpaceOnUse" x1="190.353" x2="321.898" y1="330.068" y2="198.523"><stop offset="0" stop-color="#fbe150"/><stop offset="1" stop-color="#f15318"/></linearGradient><g id="Icon"><g id="Semicolon"><path d="m259.3 387.7c-2 0-4-.6-5.7-1.8l-23.9-16.7c-2.3-1.6-3.9-4.2-4.2-7-.4-2.8.5-5.7 2.4-7.8 3.5-4 6.1-7.8 7.8-11.1.3-.6.6-1.3.9-1.9-1.5-.7-3-1.4-4.4-2.2-4.8-2.8-9-6.3-12.5-10.6-3.4-4.1-6.1-8.8-8.1-13.9-2-5.3-3.1-11-3.1-16.9 0-6.5 1.3-12.7 3.8-18.5 2.5-5.7 5.9-10.7 10.1-14.9s9.3-7.6 14.9-10.1c5.8-2.5 12-3.8 18.5-3.8s12.9 1.3 18.8 3.8c5.8 2.5 10.8 5.9 15.1 10.1 4.2 4.2 7.6 9.3 10.1 14.9 2.5 5.8 3.8 12 3.8 18.5 0 7-.7 14.5-2 22.4-1.3 8-3.5 16-6.4 23.8-3 8-6.9 15.6-11.7 22.7-5 7.4-11.1 13.8-18.2 19-1.8 1.3-3.9 2-6 2zm-3.1-168.3c-6.6 0-12.9-1.3-18.7-3.8-5.6-2.5-10.7-5.8-15-10-4.4-4.3-7.8-9.4-10.3-15.2s-3.8-12.2-3.8-18.8 1.3-12.5 3.8-18.3c2.5-5.7 5.9-10.7 10.2-15s9.4-7.8 15.1-10.2c5.8-2.5 12.1-3.8 18.7-3.8s12.7 1.3 18.5 3.8c5.7 2.5 10.8 5.9 15 10.3 4.2 4.3 7.6 9.3 10 15 2.5 5.8 3.8 11.9 3.8 18.3s-1.3 12.9-3.8 18.8c-2.5 5.8-5.9 10.8-10.1 15.1-4.2 4.2-9.3 7.6-14.9 10.1-5.8 2.5-12 3.7-18.5 3.7z" fill="#66001b"/><path d="m221.4 186.5c-2-4.6-3-9.6-3-14.8 0-5 1-9.7 3-14.3 2-4.5 4.7-8.5 8.1-12s7.4-6.1 12-8.1c4.5-2 9.4-3 14.7-3s10 1 14.5 3 8.5 4.7 11.9 8.1 6 7.4 8 12c2 4.5 3 9.3 3 14.3 0 5.3-1 10.2-3 14.8s-4.6 8.6-8 12-7.3 6-11.9 8-9.4 3-14.5 3-10.2-1-14.7-3-8.5-4.6-12-8-6.1-7.4-8.1-12zm61.2 84.9c-3.4-3.4-7.4-6-12-8s-9.6-3-14.8-3c-5.3 0-10 1-14.5 3s-8.5 4.7-11.9 8c-3.4 3.4-6 7.3-8 11.9-2 4.5-3 9.4-3 14.5 0 4.7.8 9.1 2.4 13.3s3.8 7.9 6.5 11.2 6 6 9.8 8.2 7.9 3.7 12.3 4.6c-1.2 4.2-2.8 8.5-4.8 12.6-2.1 4.2-5.1 8.6-9.2 13.3l23.9 16.7c6.2-4.5 11.4-10.1 15.8-16.6s7.9-13.4 10.7-20.6c2.7-7.2 4.7-14.6 5.9-22s1.9-14.3 1.9-20.8c0-5.1-1-10-3-14.5s-4.6-8.5-8-11.8z" fill="url(#SVGID_1_)"/></g></g></svg>